<svg width="133" height="158" viewBox="0 0 133 158" fill="none" xmlns="http://www.w3.org/2000/svg">
<path d="M87.7892 14.5031L94.6566 2.0648C94.7445 1.90541 94.8002 1.73023 94.8206 1.54923C94.841 1.36824 94.8256 1.18498 94.7755 1.00993C94.7253 0.834881 94.6413 0.67146 94.5283 0.529001C94.4152 0.386542 94.2753 0.267834 94.1165 0.179656C93.9578 0.0914772 93.7833 0.0355545 93.603 0.0150808C93.4227 -0.00539288 93.2401 0.00998354 93.0658 0.0603317C92.8914 0.11068 92.7286 0.195014 92.5867 0.308518C92.4448 0.422023 92.3265 0.562476 92.2387 0.721858L85.2997 13.2895C79.3762 10.6822 72.9786 9.3361 66.5107 9.3361C60.0429 9.3361 53.6453 10.6822 47.7218 13.2895L40.7828 0.721858C40.6054 0.398068 40.3071 0.158283 39.9536 0.0552533C39.6001 -0.0477761 39.2203 -0.00561073 38.8978 0.172474C38.5752 0.350559 38.3364 0.649975 38.2338 1.00485C38.1311 1.35973 38.1731 1.74101 38.3505 2.0648L45.218 14.5031C38.6838 17.7383 33.1632 22.7173 29.2615 28.8942C25.3598 35.071 23.2277 42.2071 23.099 49.5201H109.922C109.792 42.2056 107.658 35.0685 103.754 28.8915C99.8496 22.7145 94.326 17.7363 87.7892 14.5031ZM46.477 33.57C45.7594 33.57 45.0579 33.3562 44.4613 32.9559C43.8647 32.5555 43.3999 31.9864 43.1256 31.3207C42.8513 30.6549 42.7798 29.9225 42.9204 29.216C43.0609 28.5095 43.407 27.8608 43.915 27.3518C44.4229 26.8429 45.0698 26.4967 45.7739 26.357C46.4779 26.2174 47.2073 26.2905 47.8699 26.5672C48.5325 26.8439 49.0985 27.3116 49.4962 27.9114C49.8938 28.5111 50.1053 29.2157 50.1039 29.9361C50.102 30.9006 49.7191 31.8248 49.0391 32.5061C48.3591 33.1874 47.4377 33.57 46.477 33.57ZM86.5516 33.57C85.834 33.57 85.1325 33.3562 84.5359 32.9559C83.9393 32.5555 83.4744 31.9864 83.2001 31.3207C82.9258 30.6549 82.8544 29.9225 82.9949 29.216C83.1355 28.5095 83.4816 27.8608 83.9895 27.3518C84.4975 26.8429 85.1444 26.4967 85.8484 26.357C86.5524 26.2174 87.2819 26.2905 87.9445 26.5672C88.6071 26.8439 89.173 27.3116 89.5707 27.9114C89.9684 28.5111 90.1799 29.2157 90.1785 29.9361C90.1766 30.9006 89.7936 31.8248 89.1137 32.5061C88.4337 33.1874 87.5123 33.57 86.5516 33.57ZM23.0847 116.136C23.0828 117.522 23.3536 118.895 23.8815 120.177C24.4094 121.458 25.184 122.622 26.161 123.602C27.1379 124.582 28.298 125.359 29.5746 125.888C30.8513 126.417 32.2194 126.688 33.6005 126.685H40.561V148.23C40.561 150.821 41.5864 153.306 43.4116 155.138C45.2368 156.971 47.7123 158 50.2935 158C52.8747 158 55.3502 156.971 57.1754 155.138C59.0006 153.306 60.026 150.821 60.026 148.23V126.685H73.0026V148.23C73.0026 150.82 74.0276 153.304 75.8522 155.136C77.6767 156.967 80.1513 157.996 82.7316 157.996C85.3118 157.996 87.7864 156.967 89.6109 155.136C91.4355 153.304 92.4605 150.82 92.4605 148.23V126.685H99.4281C100.807 126.686 102.173 126.414 103.448 125.885C104.722 125.355 105.881 124.579 106.856 123.599C107.831 122.62 108.605 121.458 109.132 120.178C109.66 118.899 109.931 117.527 109.93 116.143V52.9672H23.0847V116.136ZM9.72892 51.2867C7.14857 51.2905 4.6751 52.3217 2.85119 54.1541C1.02728 55.9864 0.00189175 58.4703 0 61.0607V101.773C-1.9038e-08 103.055 0.251645 104.325 0.740569 105.51C1.22949 106.695 1.94612 107.772 2.84953 108.679C3.75295 109.586 4.82545 110.305 6.00582 110.796C7.18619 111.287 8.4513 111.539 9.72892 111.539C11.0065 111.539 12.2716 111.287 13.452 110.796C14.6324 110.305 15.7049 109.586 16.6083 108.679C17.5117 107.772 18.2283 106.695 18.7173 105.51C19.2062 104.325 19.4578 103.055 19.4578 101.773V61.0607C19.454 58.4716 18.4278 55.9895 16.6041 54.1587C14.7804 52.3279 12.308 51.2977 9.72892 51.2939V51.2867ZM123.271 51.2867C120.691 51.2905 118.217 52.3217 116.393 54.1541C114.569 55.9864 113.544 58.4703 113.542 61.0607V101.773C113.542 103.055 113.794 104.325 114.283 105.51C114.772 106.695 115.488 107.772 116.392 108.679C117.295 109.586 118.368 110.305 119.548 110.796C120.728 111.287 121.993 111.539 123.271 111.539C124.549 111.539 125.814 111.287 126.994 110.796C128.175 110.305 129.247 109.586 130.15 108.679C131.054 107.772 131.771 106.695 132.259 105.51C132.748 104.325 133 103.055 133 101.773V61.0607C132.996 58.4716 131.97 55.9895 130.146 54.1587C128.323 52.3279 125.85 51.2977 123.271 51.2939V51.2867Z" fill="#00DA3D"/>
</svg>
