<svg width="169" height="169" viewBox="0 0 169 169" fill="none" xmlns="http://www.w3.org/2000/svg">
<path d="M10.5625 116.188C10.5625 113.386 11.6753 110.7 13.6562 108.719C15.637 106.738 18.3237 105.625 21.125 105.625H42.25C45.0513 105.625 47.738 106.738 49.7188 108.719C51.6997 110.7 52.8125 113.386 52.8125 116.188V147.875C52.8125 150.676 51.6997 153.363 49.7188 155.344C47.738 157.325 45.0513 158.438 42.25 158.438H21.125C18.3237 158.438 15.637 157.325 13.6562 155.344C11.6753 153.363 10.5625 150.676 10.5625 147.875V116.188ZM63.375 73.9375C63.375 71.1362 64.4878 68.4495 66.4687 66.4687C68.4495 64.4878 71.1362 63.375 73.9375 63.375H95.0625C97.8638 63.375 100.55 64.4878 102.531 66.4687C104.512 68.4495 105.625 71.1362 105.625 73.9375V147.875C105.625 150.676 104.512 153.363 102.531 155.344C100.55 157.325 97.8638 158.438 95.0625 158.438H73.9375C71.1362 158.438 68.4495 157.325 66.4687 155.344C64.4878 153.363 63.375 150.676 63.375 147.875V73.9375ZM116.188 21.125C116.188 18.3237 117.3 15.637 119.281 13.6562C121.262 11.6753 123.949 10.5625 126.75 10.5625H147.875C150.676 10.5625 153.363 11.6753 155.344 13.6562C157.325 15.637 158.438 18.3237 158.438 21.125V147.875C158.438 150.676 157.325 153.363 155.344 155.344C153.363 157.325 150.676 158.438 147.875 158.438H126.75C123.949 158.438 121.262 157.325 119.281 155.344C117.3 153.363 116.188 150.676 116.188 147.875V21.125Z" fill="#E6AD10"/>
</svg>
