<svg width="383" height="400" viewBox="0 0 383 400" fill="none" xmlns="http://www.w3.org/2000/svg">
<path d="M160.371 398.342L34.548 325.746C33.4303 325.101 32.8164 324.173 32.8164 323.135C32.8164 321.939 33.6507 320.775 35.0989 319.941L245.958 198.298C248.508 196.819 252.27 196.678 254.506 197.967L380.328 270.563C381.446 271.208 382.06 272.136 382.06 273.175C382.06 274.37 381.226 275.534 379.777 276.368L168.934 398.011C167.549 398.814 165.817 399.223 164.149 399.223C162.748 399.223 161.394 398.924 160.371 398.342ZM379.022 275.062C379.982 274.512 380.549 273.804 380.549 273.175C380.549 272.561 380.013 272.136 379.573 271.869L253.75 199.273C252.003 198.266 248.776 198.408 246.698 199.603L35.8703 321.247C34.91 321.797 34.3433 322.505 34.3433 323.135C34.3433 323.748 34.8786 324.188 35.3193 324.44L161.142 397.036C162.905 398.043 166.132 397.901 168.179 396.706L379.022 275.062Z" fill="#42E8E0"/>
<path d="M246.037 161.016L219.386 3.00402L221.527 2.10738L218.3 0.266926V0.282659C217.67 -0.126332 216.789 -0.110612 215.813 0.455683L2.81288 123.342C1.06557 124.349 -0.256721 126.944 0.0423694 128.753L26.9133 288.024C27.055 288.857 27.4643 289.408 28.031 289.644L31.1793 291.469L31.7145 288.527L31.5413 288.574L243.266 166.427C245.029 165.421 246.351 162.825 246.037 161.016Z" fill="url(#paint0_linear_42_22)"/>
<path d="M4.00927 127.668L0.514628 126.126C0.121088 127.023 -0.0678127 127.966 0.0581202 128.753L26.9291 288.024C27.0707 288.857 27.48 289.408 28.0467 289.644L31.195 291.469L31.7303 288.527L31.5413 288.574L42.2614 282.392L4.00927 127.668Z" fill="url(#paint1_linear_42_22)"/>
<path d="M246.619 168.347L33.6035 291.249C31.9663 292.192 30.5496 291.642 30.2662 289.943L3.39529 130.657C3.08046 128.848 4.4185 126.252 6.16582 125.245L219.181 2.34338C220.818 1.39956 222.235 1.95013 222.519 3.64901L249.389 162.92C249.689 164.744 248.366 167.34 246.619 168.347Z" fill="#24126A"/>
<g opacity="0.51">
<path d="M219.89 5.31641L5.86676 128.737L32.8951 288.417L246.776 165.075L219.89 5.31641Z" fill="#453C9E"/>
</g>
<path d="M380.517 243.742L368.9 249.814L252.333 182.567C250.381 181.434 246.981 181.576 244.73 182.881L43.6781 298.878C41.7577 297.808 32.9896 293.592 32.9896 293.592L37.2398 300.498L37.2556 300.482C37.4287 300.97 37.8065 301.442 38.4519 301.803L161.221 372.638C163.173 373.77 166.573 373.629 168.824 372.323L374.567 253.621C375.496 253.086 376.062 252.441 376.298 251.781L376.314 251.796L380.517 243.742Z" fill="url(#paint2_linear_42_22)"/>
<path d="M378.723 245.661L167.864 367.305C165.55 368.642 162.071 368.783 160.072 367.635L34.2489 295.039C32.2497 293.891 32.5016 291.877 34.8156 290.54L245.675 168.897C247.989 167.56 251.467 167.418 253.467 168.567L379.289 241.162C381.289 242.311 381.037 244.324 378.723 245.661Z" fill="url(#paint3_linear_42_22)"/>
<path d="M378.723 244.718L167.864 366.361C165.55 367.699 162.071 367.84 160.072 366.692L34.2489 294.096C33.5405 293.687 33.1312 293.168 32.9738 292.617C32.7534 293.514 33.147 294.395 34.2489 295.04L160.072 367.636C162.071 368.784 165.565 368.642 167.864 367.305L378.723 245.662C380.218 244.797 380.832 243.648 380.549 242.642C380.36 243.365 379.762 244.12 378.723 244.718Z" fill="white"/>
<g opacity="0.15">
<mask id="mask0_42_22" style="mask-type:luminance" maskUnits="userSpaceOnUse" x="5" y="5" width="242" height="284">
<path d="M5.86676 128.737L219.89 5.31641L246.776 165.075L32.8951 288.417L5.86676 128.737Z" fill="white"/>
</mask>
<g mask="url(#mask0_42_22)">
<path d="M246.871 167.324L235.254 173.396L118.687 106.148C116.735 105.016 113.335 105.157 111.084 106.463L-89.9682 222.443C-91.8887 221.374 -100.657 217.158 -100.657 217.158L-96.4065 224.064L-96.3908 224.048C-96.2176 224.536 -95.8398 225.007 -95.1944 225.369L27.5744 296.203C29.5264 297.336 32.9266 297.194 35.1777 295.889L240.921 177.187C241.849 176.652 242.416 176.007 242.652 175.347L242.668 175.362L246.871 167.324Z" fill="url(#paint4_linear_42_22)"/>
<path d="M245.076 169.227L34.2331 290.871C31.9191 292.208 28.4402 292.349 26.441 291.201L-99.3974 218.605C-101.397 217.457 -101.145 215.443 -98.8308 214.106L112.028 92.4628C114.342 91.1257 117.821 90.9841 119.82 92.1324L245.643 164.728C247.642 165.877 247.39 167.89 245.076 169.227Z" fill="url(#paint5_linear_42_22)"/>
<path d="M-98.8308 214.106L112.028 92.4628C113.508 91.6134 115.491 91.2516 117.239 91.4089C115.948 91.5033 114.641 91.8651 113.587 92.4628L-97.2723 214.106C-99.5863 215.443 -99.8382 217.457 -97.839 218.605L27.9837 291.201C28.6921 291.61 29.6051 291.846 30.5653 291.94C29.0384 292.066 27.5114 291.83 26.4253 291.201L-99.3974 218.605C-101.397 217.457 -101.145 215.443 -98.8308 214.106Z" fill="white"/>
<g opacity="0.5">
<path d="M134.633 148.29L141.386 144.389C141.922 144.075 142.85 144.106 143.433 144.452L150.941 148.841C151.524 149.187 151.571 149.722 151.02 150.036L144.267 153.938C143.732 154.252 142.803 154.221 142.221 153.875L134.712 149.486C134.129 149.124 134.098 148.605 134.633 148.29Z" fill="#24126A"/>
<path d="M124.197 154.299L130.95 150.398C131.485 150.084 132.414 150.115 132.996 150.461L140.505 154.85C141.087 155.196 141.134 155.731 140.584 156.045L133.83 159.947C133.295 160.261 132.366 160.23 131.784 159.884L124.275 155.495C123.693 155.149 123.661 154.614 124.197 154.299Z" fill="#24126A"/>
<path d="M113.76 160.324L120.513 156.423C121.048 156.109 121.977 156.14 122.559 156.486L130.068 160.875C130.651 161.221 130.698 161.756 130.147 162.07L123.394 165.971C122.858 166.286 121.93 166.255 121.347 165.909L113.838 161.52C113.256 161.174 113.225 160.639 113.76 160.324Z" fill="#24126A"/>
<path d="M121.709 168.346L128.462 164.445C128.998 164.13 129.926 164.162 130.509 164.508L136.821 168.189C137.404 168.535 137.451 169.07 136.9 169.384L130.147 173.286C129.612 173.6 128.683 173.569 128.1 173.223L121.788 169.542C121.206 169.196 121.158 168.661 121.709 168.346Z" fill="#24126A"/>
<path d="M111.273 174.371L118.026 170.47C118.561 170.155 119.49 170.187 120.072 170.533L126.385 174.214C126.967 174.56 127.014 175.095 126.463 175.409L119.71 179.31C119.175 179.625 118.246 179.594 117.664 179.248L111.351 175.567C110.769 175.205 110.722 174.67 111.273 174.371Z" fill="#24126A"/>
<path d="M100.836 180.38L107.589 176.479C108.124 176.165 109.053 176.196 109.635 176.542L115.948 180.223C116.53 180.569 116.578 181.104 116.027 181.419L109.273 185.32C108.738 185.634 107.809 185.603 107.227 185.257L100.915 181.576C100.332 181.23 100.285 180.695 100.836 180.38Z" fill="#24126A"/>
<path d="M90.3992 186.405L97.1524 182.504C97.6876 182.19 98.6163 182.221 99.1988 182.567L105.511 186.248C106.094 186.594 106.141 187.129 105.59 187.444L98.8367 191.345C98.3015 191.659 97.3728 191.628 96.7903 191.282L90.4779 187.601C89.8955 187.255 89.8483 186.72 90.3992 186.405Z" fill="#24126A"/>
<path d="M79.9625 192.43L86.7156 188.529C87.2508 188.214 88.1796 188.245 88.762 188.592L95.0744 192.272C95.6569 192.619 95.7041 193.153 95.1531 193.468L88.4 197.369C87.8648 197.684 86.936 197.652 86.3536 197.306L80.0412 193.625C79.4588 193.279 79.4115 192.744 79.9625 192.43Z" fill="#24126A"/>
<path d="M69.5258 198.455L76.279 194.553C76.8142 194.239 77.743 194.27 78.3254 194.616L84.6378 198.297C85.2202 198.643 85.2675 199.178 84.7165 199.493L77.9633 203.394C77.4281 203.709 76.4994 203.677 75.9169 203.331L69.6045 199.65C69.0221 199.304 68.9749 198.769 69.5258 198.455Z" fill="#24126A"/>
<path d="M59.0892 204.48L65.8423 200.578C66.3776 200.264 67.3063 200.295 67.8888 200.641L74.2011 204.322C74.7836 204.668 74.8308 205.203 74.2798 205.518L67.5267 209.419C66.9915 209.733 66.0627 209.702 65.4803 209.356L59.1679 205.675C58.5855 205.313 58.5382 204.794 59.0892 204.48Z" fill="#24126A"/>
<path d="M48.6525 210.489L55.4056 206.588C55.9408 206.273 56.8696 206.305 57.452 206.651L63.7644 210.332C64.3468 210.678 64.3941 211.212 63.8431 211.527L57.09 215.428C56.5547 215.743 55.626 215.711 55.0435 215.365L48.7312 211.684C48.1487 211.338 48.1015 210.803 48.6525 210.489Z" fill="#24126A"/>
<path d="M38.2 216.513L44.9532 212.612C45.4884 212.297 46.4171 212.329 46.9996 212.675L53.3119 216.356C53.8944 216.702 53.9416 217.237 53.3907 217.551L46.6375 221.453C46.1023 221.767 45.1735 221.736 44.5911 221.39L38.2787 217.709C37.6963 217.363 37.6648 216.828 38.2 216.513Z" fill="#24126A"/>
<path d="M27.7634 222.538L34.5165 218.636C35.0517 218.322 35.9805 218.353 36.5629 218.699L42.8753 222.38C43.4577 222.726 43.505 223.261 42.954 223.576L36.2009 227.477C35.6656 227.792 34.7369 227.76 34.1544 227.414L27.8421 223.733C27.2596 223.387 27.2281 222.852 27.7634 222.538Z" fill="#24126A"/>
<path d="M126.054 176.935L132.807 173.034C133.342 172.719 134.271 172.751 134.854 173.097L141.166 176.778C141.748 177.124 141.796 177.659 141.245 177.973L134.492 181.874C133.956 182.189 133.028 182.158 132.445 181.812L126.133 178.131C125.55 177.785 125.519 177.25 126.054 176.935Z" fill="#24126A"/>
<path d="M136.648 170.832L143.401 166.931C143.936 166.616 144.865 166.648 145.448 166.994L151.76 170.675C152.342 171.021 152.39 171.555 151.839 171.87L145.086 175.771C144.55 176.086 143.622 176.054 143.039 175.708L136.727 172.027C136.144 171.681 136.113 171.146 136.648 170.832Z" fill="#24126A"/>
<path d="M147.258 164.713L161.819 156.313C162.354 155.998 163.283 156.03 163.865 156.376L170.178 160.057C170.76 160.403 170.807 160.938 170.256 161.252L155.695 169.652C155.16 169.967 154.231 169.936 153.649 169.589L147.337 165.909C146.754 165.547 146.723 165.012 147.258 164.713Z" fill="#24126A"/>
<path d="M159.568 168.708L171.374 161.897C171.909 161.582 172.838 161.614 173.42 161.96L179.733 165.641C180.315 165.987 180.363 166.522 179.812 166.836L168.005 173.648C167.47 173.962 166.541 173.931 165.959 173.585L159.647 169.904C159.064 169.558 159.033 169.023 159.568 168.708Z" fill="#24126A"/>
<path d="M115.617 182.96L122.37 179.059C122.906 178.744 123.834 178.776 124.417 179.122L130.729 182.803C131.312 183.149 131.359 183.684 130.808 183.998L124.055 187.899C123.52 188.214 122.591 188.183 122.008 187.836L115.696 184.156C115.114 183.809 115.082 183.275 115.617 182.96Z" fill="#24126A"/>
<path d="M105.181 188.985L111.934 185.084C112.469 184.769 113.398 184.801 113.98 185.147L120.293 188.828C120.875 189.174 120.922 189.709 120.371 190.023L113.618 193.924C113.083 194.239 112.154 194.207 111.572 193.861L105.259 190.18C104.677 189.834 104.645 189.3 105.181 188.985Z" fill="#24126A"/>
<path d="M94.7439 195.01L101.497 191.109C102.032 190.794 102.961 190.826 103.543 191.172L109.856 194.853C110.438 195.199 110.486 195.733 109.935 196.048L103.181 199.949C102.646 200.264 101.717 200.232 101.135 199.886L94.8226 196.205C94.2402 195.844 94.193 195.324 94.7439 195.01Z" fill="#24126A"/>
<path d="M84.3072 201.034L91.0603 197.133C91.5955 196.818 92.5243 196.85 93.1067 197.196L99.4191 200.877C100.002 201.223 100.049 201.758 99.4978 202.072L92.7447 205.974C92.2095 206.288 91.2807 206.257 90.6983 205.911L84.3859 202.23C83.8034 201.868 83.7562 201.333 84.3072 201.034Z" fill="#24126A"/>
<path d="M73.8705 207.044L80.6237 203.142C81.1589 202.828 82.0877 202.859 82.6701 203.205L88.9825 206.886C89.5649 207.232 89.6121 207.767 89.0612 208.082L82.308 211.983C81.7728 212.297 80.8441 212.266 80.2616 211.92L73.9492 208.239C73.3668 207.893 73.3196 207.358 73.8705 207.044Z" fill="#24126A"/>
<path d="M63.4339 213.068L70.187 209.167C70.7222 208.853 71.651 208.884 72.2334 209.23L78.5458 212.911C79.1282 213.257 79.1755 213.792 78.6245 214.107L71.8714 218.008C71.3361 218.322 70.4074 218.291 69.8249 217.945L63.5126 214.264C62.9301 213.918 62.8829 213.383 63.4339 213.068Z" fill="#24126A"/>
<path d="M52.9971 219.093L59.7503 215.192C60.2855 214.878 61.2142 214.909 61.7967 215.255L68.1091 218.936C68.6915 219.282 68.7387 219.817 68.1878 220.132L61.4346 224.033C60.8994 224.347 59.9707 224.316 59.3882 223.97L53.0758 220.289C52.4934 219.943 52.4462 219.408 52.9971 219.093Z" fill="#24126A"/>
<path d="M42.5605 225.118L49.3136 221.217C49.8488 220.902 50.7776 220.934 51.36 221.28L57.6724 224.961C58.2549 225.307 58.3021 225.842 57.7511 226.156L50.998 230.058C50.4628 230.372 49.534 230.341 48.9516 229.995L42.6392 226.314C42.0567 225.968 42.0095 225.433 42.5605 225.118Z" fill="#24126A"/>
<path d="M32.1237 231.142L38.8769 227.241C39.4121 226.926 40.3409 226.958 40.9233 227.304L47.2357 230.985C47.8181 231.331 47.8654 231.866 47.3144 232.18L40.5612 236.082C40.026 236.396 39.0973 236.365 38.5148 236.019L32.2024 232.338C31.62 231.976 31.5728 231.441 32.1237 231.142Z" fill="#24126A"/>
<path d="M13.5644 241.839L28.3143 233.329C28.8495 233.014 29.7783 233.046 30.3607 233.392L36.6731 237.073C37.2555 237.419 37.3028 237.954 36.7518 238.268L22.0019 246.778C21.4667 247.093 20.5379 247.062 19.9555 246.715L13.6431 243.035C13.0607 242.688 13.0135 242.154 13.5644 241.839Z" fill="#24126A"/>
<path d="M32.6905 253.008L45.1421 245.819C45.6773 245.505 46.6061 245.536 47.1885 245.882L53.5009 249.563C54.0834 249.909 54.1306 250.444 53.5796 250.758L41.128 257.947C40.5928 258.262 39.664 258.23 39.0816 257.884L32.7692 254.203C32.1868 253.857 32.1553 253.323 32.6905 253.008Z" fill="#24126A"/>
<path d="M117.065 193.232L123.819 189.331C124.354 189.017 125.283 189.048 125.865 189.394L132.177 193.075C132.76 193.421 132.807 193.956 132.256 194.271L125.503 198.172C124.968 198.486 124.039 198.455 123.457 198.109L117.144 194.428C116.562 194.082 116.53 193.547 117.065 193.232Z" fill="#24126A"/>
<path d="M127.77 187.066L134.523 183.165C135.058 182.85 135.987 182.882 136.569 183.228L142.882 186.909C143.464 187.255 143.511 187.79 142.96 188.104L136.207 192.005C135.672 192.32 134.743 192.288 134.161 191.942L127.849 188.261C127.266 187.9 127.219 187.365 127.77 187.066Z" fill="#24126A"/>
<path d="M138.458 180.884L145.211 176.983C145.747 176.668 146.675 176.7 147.258 177.046L153.57 180.727C154.153 181.073 154.2 181.607 153.649 181.922L146.896 185.823C146.361 186.138 145.432 186.106 144.849 185.76L138.553 182.079C137.955 181.733 137.923 181.198 138.458 180.884Z" fill="#24126A"/>
<path d="M149.163 174.718L155.916 170.817C156.451 170.502 157.38 170.534 157.962 170.88L164.275 174.561C164.857 174.907 164.904 175.441 164.353 175.756L157.6 179.657C157.065 179.972 156.136 179.94 155.554 179.594L149.241 175.913C148.659 175.567 148.612 175.032 149.163 174.718Z" fill="#24126A"/>
<path d="M106.629 199.256L113.382 195.355C113.917 195.041 114.846 195.072 115.428 195.418L121.741 199.099C122.323 199.445 122.37 199.98 121.819 200.295L115.066 204.196C114.531 204.51 113.602 204.479 113.02 204.133L106.708 200.452C106.125 200.09 106.094 199.571 106.629 199.256Z" fill="#24126A"/>
<path d="M96.1921 205.266L102.945 201.365C103.48 201.05 104.409 201.081 104.992 201.427L111.304 205.108C111.886 205.454 111.934 205.989 111.383 206.304L104.63 210.205C104.094 210.52 103.166 210.488 102.583 210.142L96.2708 206.461C95.6884 206.115 95.6569 205.58 96.1921 205.266Z" fill="#24126A"/>
<path d="M85.7554 211.291L92.5086 207.389C93.0438 207.075 93.9725 207.106 94.555 207.452L100.867 211.133C101.45 211.479 101.497 212.014 100.946 212.329L94.1929 216.23C93.6577 216.545 92.7289 216.513 92.1465 216.167L85.8341 212.486C85.2517 212.14 85.2045 211.605 85.7554 211.291Z" fill="#24126A"/>
<path d="M75.3187 217.315L82.0719 213.414C82.6071 213.1 83.5359 213.131 84.1183 213.477L90.4307 217.158C91.0131 217.504 91.0604 218.039 90.5094 218.354L83.7563 222.255C83.221 222.569 82.2923 222.538 81.7098 222.192L75.3974 218.511C74.815 218.165 74.7678 217.63 75.3187 217.315Z" fill="#24126A"/>
<path d="M64.882 223.34L71.6352 219.439C72.1704 219.124 73.0991 219.156 73.6816 219.502L79.994 223.183C80.5764 223.529 80.6236 224.063 80.0727 224.378L73.3195 228.279C72.7843 228.594 71.8555 228.562 71.2731 228.216L64.9607 224.535C64.3783 224.189 64.331 223.655 64.882 223.34Z" fill="#24126A"/>
<path d="M54.4454 229.365L61.1985 225.464C61.7337 225.149 62.6625 225.18 63.2449 225.527L69.5573 229.207C70.1397 229.554 70.187 230.088 69.636 230.403L62.8829 234.304C62.3476 234.619 61.4189 234.587 60.8364 234.241L54.5241 230.56C53.9416 230.214 53.8944 229.679 54.4454 229.365Z" fill="#24126A"/>
<path d="M44.0087 235.39L50.7619 231.489C51.2971 231.174 52.2258 231.205 52.8083 231.551L59.1207 235.232C59.7031 235.578 59.7503 236.113 59.1994 236.428L52.4462 240.329C51.911 240.644 50.9822 240.612 50.3998 240.266L44.0874 236.585C43.505 236.223 43.4578 235.689 44.0087 235.39Z" fill="#24126A"/>
<path d="M33.572 241.399L40.3251 237.498C40.8603 237.183 41.7891 237.215 42.3715 237.561L48.6839 241.242C49.2664 241.588 49.3136 242.123 48.7626 242.437L42.0095 246.338C41.4743 246.653 40.5455 246.621 39.9631 246.275L33.6507 242.594C33.0682 242.248 33.021 241.714 33.572 241.399Z" fill="#24126A"/>
<path d="M23.1353 247.424L29.8885 243.523C30.4237 243.208 31.3524 243.24 31.9349 243.586L38.2473 247.267C38.8297 247.613 38.8769 248.147 38.326 248.462L31.5728 252.363C31.0376 252.678 30.1089 252.646 29.5264 252.3L23.214 248.619C22.6316 248.273 22.5844 247.738 23.1353 247.424Z" fill="#24126A"/>
<path d="M142.284 189.787L149.037 185.886C149.572 185.571 150.501 185.603 151.083 185.949L157.396 189.63C157.978 189.976 158.025 190.511 157.474 190.825L150.721 194.727C150.186 195.041 149.257 195.01 148.675 194.664L142.362 190.983C141.78 190.637 141.748 190.102 142.284 189.787Z" fill="#24126A"/>
<path d="M152.673 183.794L159.426 179.893C159.961 179.578 160.89 179.61 161.473 179.956L167.785 183.637C168.367 183.983 168.415 184.518 167.864 184.832L161.111 188.733C160.575 189.048 159.647 189.017 159.064 188.67L152.752 184.989C152.169 184.643 152.138 184.109 152.673 183.794Z" fill="#24126A"/>
<path d="M163.063 177.8L169.816 173.899C170.351 173.585 171.28 173.616 171.862 173.962L178.174 177.643C178.757 177.989 178.804 178.524 178.253 178.839L171.5 182.74C170.965 183.054 170.036 183.023 169.454 182.677L163.141 178.996C162.559 178.65 162.512 178.115 163.063 177.8Z" fill="#24126A"/>
<path d="M173.452 171.807L180.205 167.906C180.74 167.591 181.669 167.623 182.252 167.969L188.564 171.65C189.146 171.996 189.194 172.531 188.643 172.845L181.889 176.747C181.354 177.061 180.426 177.03 179.843 176.684L173.531 173.003C172.948 172.657 172.901 172.122 173.452 171.807Z" fill="#24126A"/>
<path d="M183.495 177.675L190.248 173.774C190.783 173.459 191.712 173.491 192.295 173.837L194.373 175.048C194.955 175.394 195.002 175.929 194.451 176.243L187.698 180.145C187.163 180.459 186.234 180.428 185.652 180.082L183.574 178.87C182.991 178.524 182.96 177.989 183.495 177.675Z" fill="#24126A"/>
<path d="M169.957 185.493L176.71 181.592C177.246 181.277 178.174 181.308 178.757 181.654L180.835 182.866C181.417 183.212 181.464 183.747 180.913 184.061L174.16 187.962C173.625 188.277 172.696 188.246 172.114 187.899L170.036 186.688C169.438 186.342 169.406 185.807 169.957 185.493Z" fill="#24126A"/>
<path d="M159.615 191.47L166.368 187.569C166.903 187.255 167.832 187.286 168.415 187.632L170.493 188.843C171.075 189.189 171.122 189.724 170.571 190.039L163.818 193.94C163.283 194.255 162.354 194.223 161.772 193.877L159.694 192.666C159.096 192.304 159.064 191.769 159.615 191.47Z" fill="#24126A"/>
<path d="M149.273 197.432L156.026 193.531C156.561 193.216 157.49 193.248 158.072 193.594L160.15 194.805C160.733 195.151 160.78 195.686 160.229 196.001L153.476 199.902C152.941 200.216 152.012 200.185 151.429 199.839L149.352 198.628C148.753 198.282 148.722 197.747 149.273 197.432Z" fill="#24126A"/>
<path d="M138.931 203.394L145.684 199.493C146.219 199.178 147.148 199.21 147.73 199.556L149.808 200.767C150.39 201.113 150.438 201.648 149.887 201.963L143.134 205.864C142.598 206.178 141.67 206.147 141.087 205.801L139.009 204.59C138.411 204.244 138.38 203.709 138.931 203.394Z" fill="#24126A"/>
<path d="M81.1904 236.711L87.9435 232.81C88.4787 232.495 89.4075 232.527 89.9899 232.873L92.0678 234.084C92.6503 234.43 92.6975 234.965 92.1465 235.28L85.3934 239.181C84.8582 239.495 83.9294 239.464 83.347 239.118L81.2691 237.906C80.6866 237.56 80.6394 237.026 81.1904 236.711Z" fill="#24126A"/>
<path d="M70.8481 242.673L77.6013 238.772C78.1365 238.457 79.0653 238.489 79.6477 238.835L81.7256 240.046C82.308 240.392 82.3552 240.927 81.8043 241.241L75.0511 245.143C74.5159 245.457 73.5872 245.426 73.0047 245.08L70.9268 243.868C70.3444 243.522 70.2972 242.988 70.8481 242.673Z" fill="#24126A"/>
<path d="M60.5059 248.65L67.259 244.749C67.7942 244.435 68.723 244.466 69.3054 244.812L71.3833 246.023C71.9658 246.37 72.013 246.904 71.462 247.219L64.7089 251.12C64.1737 251.435 63.2449 251.403 62.6625 251.057L60.5846 249.846C60.0021 249.484 59.9549 248.949 60.5059 248.65Z" fill="#24126A"/>
<path d="M50.1637 254.612L56.9168 250.711C57.452 250.397 58.3808 250.428 58.9632 250.774L61.0411 251.985C61.6236 252.331 61.6708 252.866 61.1198 253.181L54.3667 257.082C53.8314 257.397 52.9027 257.365 52.3203 257.019L50.2424 255.808C49.6599 255.462 49.6127 254.927 50.1637 254.612Z" fill="#24126A"/>
<path d="M131.847 195.812L138.6 191.911C139.135 191.596 140.064 191.628 140.646 191.974L146.959 195.655C147.541 196.001 147.589 196.536 147.038 196.85L140.284 200.751C139.749 201.066 138.82 201.035 138.238 200.689L131.926 197.008C131.343 196.646 131.312 196.111 131.847 195.812Z" fill="#24126A"/>
<path d="M121.41 201.821L128.163 197.92C128.699 197.606 129.627 197.637 130.21 197.983L136.522 201.664C137.105 202.01 137.152 202.545 136.601 202.86L129.848 206.761C129.312 207.075 128.384 207.044 127.801 206.698L121.489 203.017C120.906 202.671 120.875 202.136 121.41 201.821Z" fill="#24126A"/>
<path d="M110.974 207.845L117.727 203.944C118.262 203.63 119.191 203.661 119.773 204.007L126.085 207.688C126.668 208.034 126.715 208.569 126.164 208.883L119.411 212.785C118.876 213.099 117.947 213.068 117.365 212.722L111.052 209.041C110.47 208.695 110.438 208.16 110.974 207.845Z" fill="#24126A"/>
<path d="M100.537 213.87L107.29 209.969C107.825 209.654 108.754 209.686 109.336 210.032L115.649 213.713C116.231 214.059 116.278 214.594 115.727 214.908L108.974 218.81C108.439 219.124 107.51 219.093 106.928 218.747L100.615 215.066C100.033 214.72 100.002 214.185 100.537 213.87Z" fill="#24126A"/>
<path d="M90.1001 219.895L96.8533 215.994C97.3885 215.679 98.3173 215.711 98.8997 216.057L105.212 219.738C105.795 220.084 105.842 220.619 105.291 220.933L98.5377 224.834C98.0024 225.149 97.0737 225.118 96.4912 224.772L90.1788 221.091C89.5964 220.745 89.5649 220.21 90.1001 219.895Z" fill="#24126A"/>
<path d="M79.6635 225.92L86.4166 222.019C86.9518 221.704 87.8806 221.736 88.463 222.082L94.7754 225.763C95.3579 226.109 95.4051 226.644 94.8541 226.958L88.101 230.859C87.5658 231.174 86.637 231.142 86.0546 230.796L79.7422 227.115C79.1597 226.754 79.1283 226.235 79.6635 225.92Z" fill="#24126A"/>
<path d="M69.2267 231.929L75.9799 228.028C76.5151 227.713 77.4439 227.744 78.0263 228.091L84.3387 231.771C84.9211 232.118 84.9683 232.652 84.4174 232.967L77.6642 236.868C77.129 237.183 76.2003 237.151 75.6178 236.805L69.3054 233.124C68.723 232.778 68.6915 232.243 69.2267 231.929Z" fill="#24126A"/>
<path d="M58.7901 237.954L65.5432 234.053C66.0785 233.738 67.0072 233.769 67.5896 234.115L73.902 237.796C74.4845 238.142 74.5317 238.677 73.9807 238.992L67.2276 242.893C66.6924 243.208 65.7636 243.176 65.1812 242.83L58.8688 239.149C58.2864 238.803 58.2549 238.268 58.7901 237.954Z" fill="#24126A"/>
<path d="M48.3534 243.979L55.1065 240.077C55.6417 239.763 56.5705 239.794 57.1529 240.14L63.4653 243.821C64.0478 244.167 64.095 244.702 63.544 245.017L56.7909 248.918C56.2557 249.233 55.3269 249.201 54.7445 248.855L48.4321 245.174C47.8497 244.828 47.8024 244.293 48.3534 243.979Z" fill="#24126A"/>
<path d="M132.351 162.212L152.248 150.728C152.783 150.414 153.712 150.445 154.294 150.791L160.607 154.472C161.189 154.818 161.236 155.353 160.685 155.668L140.772 167.151C140.237 167.465 139.308 167.434 138.726 167.088L132.414 163.407C131.847 163.045 131.8 162.526 132.351 162.212Z" fill="#24126A"/>
<path d="M4.1194 236.191L24.0168 224.708C24.552 224.394 25.4808 224.425 26.0632 224.771L32.3756 228.452C32.958 228.798 33.0053 229.333 32.4543 229.648L12.5569 241.131C12.0217 241.445 11.0929 241.414 10.5105 241.068L4.19811 237.387C3.61567 237.025 3.56844 236.506 4.1194 236.191Z" fill="#24126A"/>
<path d="M23.4816 212.423L30.2347 208.522C30.77 208.207 31.6987 208.239 32.2811 208.585L39.7899 212.973C40.3723 213.32 40.4196 213.854 39.8686 214.169L33.1154 218.07C32.5802 218.385 31.6515 218.353 31.069 218.007L23.5603 213.618C22.9778 213.257 22.9306 212.738 23.4816 212.423Z" fill="#24126A"/>
<path d="M99.2775 168.693L110.092 162.464C110.627 162.149 111.556 162.18 112.138 162.527L119.647 166.915C120.23 167.261 120.277 167.796 119.726 168.111L108.911 174.34C108.376 174.655 107.447 174.623 106.865 174.277L99.3562 169.888C98.7738 169.527 98.7266 169.008 99.2775 168.693Z" fill="#24126A"/>
<path d="M33.5405 206.619L44.355 200.39C44.8903 200.075 45.819 200.107 46.4014 200.453L53.9102 204.842C54.4926 205.188 54.5399 205.723 53.9889 206.037L43.1744 212.266C42.6392 212.581 41.7104 212.55 41.128 212.203L33.6192 207.815C33.0211 207.469 32.9896 206.934 33.5405 206.619Z" fill="#24126A"/>
<path d="M84.2128 177.376L95.0273 171.147C95.5625 170.832 96.4912 170.864 97.0737 171.21L104.582 175.598C105.165 175.945 105.212 176.479 104.661 176.794L93.8467 183.023C93.3114 183.338 92.3827 183.306 91.8002 182.96L84.2915 178.572C83.709 178.225 83.6776 177.691 84.2128 177.376Z" fill="#24126A"/>
<path d="M104.598 176.81L57.6095 203.929C57.027 204.259 56.114 204.275 55.5631 203.96L47.8969 199.493C47.346 199.178 47.3774 198.644 47.9599 198.297L94.9486 171.178L104.598 176.81Z" fill="#24126A"/>
<path d="M14.7765 223.042L7.25203 227.383C6.81126 227.635 6.05567 227.619 5.56768 227.336L2.49807 225.543C2.01008 225.26 1.97859 224.819 2.4351 224.568L9.95959 220.226C10.4004 219.974 11.1559 219.99 11.6439 220.273L14.7136 222.066C15.1858 222.35 15.2173 222.774 14.7765 223.042Z" fill="#24126A"/>
<path d="M25.2132 217.017L17.6887 221.358C17.2479 221.61 16.4923 221.594 16.0043 221.311L12.9347 219.518C12.4467 219.235 12.4152 218.794 12.8717 218.543L20.3962 214.201C20.837 213.949 21.5926 213.965 22.0806 214.248L25.1502 216.042C25.6224 216.325 25.6539 216.765 25.2132 217.017Z" fill="#24126A"/>
<path d="M20.2073 226.203L12.6828 230.544C12.2421 230.796 11.4865 230.78 10.9985 230.497L7.92885 228.704C7.44086 228.421 7.40938 227.98 7.86589 227.729L15.3904 223.387C15.8311 223.135 16.5867 223.151 17.0747 223.434L20.1443 225.228C20.6166 225.511 20.6481 225.951 20.2073 226.203Z" fill="#24126A"/>
</g>
</g>
</g>
<g opacity="0.8">
<path d="M281.739 232.181L288.429 228.311C288.964 227.996 288.901 227.462 288.271 227.1L280.369 222.538C279.755 222.176 278.811 222.145 278.275 222.444L271.585 226.313C271.05 226.628 271.113 227.163 271.743 227.524L279.645 232.086C280.259 232.464 281.203 232.495 281.739 232.181Z" fill="#24126A"/>
<path d="M271.396 238.159L278.086 234.289C278.622 233.974 278.559 233.44 277.929 233.078L270.027 228.516C269.413 228.154 268.468 228.123 267.933 228.422L261.243 232.291C260.708 232.606 260.771 233.141 261.4 233.502L269.303 238.064C269.917 238.426 270.861 238.458 271.396 238.159Z" fill="#24126A"/>
<path d="M261.054 244.121L267.744 240.251C268.279 239.936 268.217 239.401 267.587 239.04L259.685 234.478C259.071 234.116 258.126 234.085 257.591 234.383L250.901 238.253C250.366 238.568 250.428 239.103 251.058 239.464L258.96 244.026C259.59 244.388 260.519 244.419 261.054 244.121Z" fill="#24126A"/>
<path d="M246.761 239.197L253.451 235.343C253.986 235.029 253.923 234.494 253.293 234.132L246.666 230.309C246.052 229.948 245.108 229.916 244.573 230.215L237.882 234.069C237.347 234.384 237.41 234.918 238.04 235.28L244.667 239.103C245.281 239.465 246.225 239.496 246.761 239.197Z" fill="#24126A"/>
<path d="M236.434 245.159L243.124 241.289C243.66 240.975 243.597 240.44 242.967 240.078L236.34 236.256C235.726 235.894 234.781 235.862 234.246 236.161L227.556 240.031C227.021 240.346 227.084 240.88 227.713 241.242L234.341 245.065C234.954 245.427 235.883 245.458 236.434 245.159Z" fill="#24126A"/>
<path d="M226.092 251.121L232.782 247.251C233.317 246.936 233.254 246.401 232.625 246.04L225.998 242.217C225.384 241.855 224.439 241.824 223.904 242.123L217.214 245.992C216.678 246.307 216.741 246.842 217.371 247.204L223.998 251.026C224.612 251.388 225.557 251.435 226.092 251.121Z" fill="#24126A"/>
<path d="M215.75 257.082L222.44 253.213C222.975 252.898 222.912 252.363 222.283 252.002L215.655 248.179C215.041 247.817 214.097 247.786 213.562 248.085L206.871 251.954C206.336 252.269 206.399 252.804 207.029 253.166L213.656 256.988C214.27 257.35 215.215 257.397 215.75 257.082Z" fill="#24126A"/>
<path d="M205.423 263.044L212.113 259.175C212.649 258.86 212.586 258.325 211.956 257.963L205.329 254.141C204.715 253.779 203.77 253.748 203.235 254.047L196.545 257.916C196.01 258.231 196.073 258.766 196.702 259.127L203.33 262.95C203.943 263.312 204.872 263.359 205.423 263.044Z" fill="#24126A"/>
<path d="M195.081 269.006L201.771 265.137C202.306 264.822 202.243 264.287 201.614 263.925L194.987 260.103C194.373 259.741 193.428 259.71 192.893 260.008L186.203 263.878C185.667 264.193 185.73 264.728 186.36 265.089L192.987 268.912C193.601 269.274 194.546 269.321 195.081 269.006Z" fill="#24126A"/>
<path d="M184.739 274.968L191.429 271.114C191.964 270.8 191.901 270.265 191.271 269.903L184.644 266.08C184.03 265.719 183.086 265.687 182.551 265.986L175.86 269.84C175.325 270.155 175.388 270.689 176.018 271.051L182.645 274.874C183.259 275.251 184.203 275.283 184.739 274.968Z" fill="#24126A"/>
<path d="M174.412 280.93L181.102 277.076C181.638 276.761 181.575 276.227 180.945 275.865L174.318 272.042C173.704 271.681 172.759 271.649 172.224 271.948L165.534 275.818C164.999 276.132 165.062 276.667 165.691 277.029L172.319 280.851C172.933 281.213 173.861 281.245 174.412 280.93Z" fill="#24126A"/>
<path d="M164.07 286.908L170.76 283.054C171.295 282.739 171.232 282.204 170.603 281.842L163.976 278.02C163.362 277.658 162.417 277.627 161.882 277.925L155.192 281.795C154.657 282.11 154.719 282.645 155.349 283.006L161.976 286.829C162.59 287.175 163.535 287.206 164.07 286.908Z" fill="#24126A"/>
<path d="M153.728 292.869L160.418 288.999C160.953 288.685 160.89 288.15 160.261 287.788L153.633 283.966C153.019 283.604 152.075 283.572 151.54 283.871L144.849 287.725C144.314 288.04 144.377 288.575 145.007 288.936L151.634 292.759C152.248 293.136 153.193 293.168 153.728 292.869Z" fill="#24126A"/>
<path d="M231.539 236.365L238.229 232.495C238.764 232.181 238.701 231.646 238.071 231.284L231.444 227.462C230.83 227.1 229.886 227.068 229.35 227.367L222.66 231.237C222.125 231.552 222.188 232.087 222.818 232.448L229.445 236.271C230.059 236.633 230.988 236.68 231.539 236.365Z" fill="#24126A"/>
<path d="M242.022 230.309L248.713 226.455C249.248 226.141 249.185 225.606 248.555 225.244L241.928 221.422C241.314 221.06 240.37 221.028 239.834 221.327L233.144 225.181C232.609 225.496 232.672 226.031 233.302 226.393L239.929 230.215C240.543 230.593 241.487 230.624 242.022 230.309Z" fill="#24126A"/>
<path d="M252.538 224.253L266.957 215.932C267.492 215.617 267.429 215.082 266.8 214.72L260.173 210.898C259.559 210.536 258.614 210.505 258.079 210.803L243.66 219.125C243.124 219.439 243.187 219.974 243.817 220.336L250.444 224.159C251.058 224.52 252.003 224.568 252.538 224.253Z" fill="#24126A"/>
<path d="M245.187 216.875L256.883 210.127C257.418 209.812 257.355 209.277 256.725 208.916L250.098 205.093C249.484 204.731 248.54 204.7 248.004 204.999L236.308 211.747C235.773 212.062 235.836 212.597 236.466 212.958L243.093 216.781C243.707 217.143 244.651 217.19 245.187 216.875Z" fill="#24126A"/>
<path d="M221.196 242.327L227.887 238.457C228.422 238.143 228.359 237.608 227.729 237.246L221.102 233.424C220.488 233.062 219.543 233.03 219.008 233.329L212.318 237.183C211.783 237.498 211.846 238.033 212.475 238.394L219.103 242.217C219.717 242.61 220.661 242.642 221.196 242.327Z" fill="#24126A"/>
<path d="M210.854 248.289L217.544 244.419C218.079 244.105 218.017 243.57 217.387 243.208L210.76 239.386C210.146 239.024 209.201 238.992 208.666 239.291L201.976 243.161C201.441 243.475 201.504 244.01 202.133 244.372L208.76 248.195C209.39 248.572 210.319 248.604 210.854 248.289Z" fill="#24126A"/>
<path d="M200.528 254.267L207.218 250.413C207.753 250.098 207.69 249.564 207.06 249.202L200.433 245.379C199.819 245.017 198.875 244.986 198.34 245.285L191.649 249.155C191.114 249.469 191.177 250.004 191.807 250.366L198.434 254.188C199.048 254.534 199.977 254.566 200.528 254.267Z" fill="#24126A"/>
<path d="M190.185 260.228L196.876 256.359C197.411 256.044 197.348 255.509 196.718 255.148L190.091 251.325C189.477 250.963 188.533 250.932 187.997 251.231L181.307 255.1C180.772 255.415 180.835 255.95 181.465 256.312L188.092 260.134C188.706 260.496 189.65 260.527 190.185 260.228Z" fill="#24126A"/>
<path d="M179.843 266.191L186.533 262.337C187.069 262.022 187.006 261.487 186.376 261.126L179.749 257.303C179.135 256.941 178.19 256.91 177.655 257.209L170.965 261.078C170.43 261.393 170.493 261.928 171.122 262.29L177.749 266.112C178.379 266.458 179.308 266.49 179.843 266.191Z" fill="#24126A"/>
<path d="M169.517 272.152L176.207 268.283C176.742 267.968 176.679 267.433 176.049 267.071L169.422 263.249C168.808 262.887 167.864 262.856 167.329 263.154L160.638 267.008C160.103 267.323 160.166 267.858 160.796 268.22L167.423 272.042C168.037 272.42 168.981 272.467 169.517 272.152Z" fill="#24126A"/>
<path d="M159.174 278.114L165.865 274.26C166.4 273.945 166.337 273.41 165.707 273.048L159.08 269.226C158.466 268.864 157.521 268.833 156.986 269.132L150.296 273.001C149.761 273.316 149.824 273.851 150.453 274.212L157.081 278.035C157.695 278.381 158.639 278.428 159.174 278.114Z" fill="#24126A"/>
<path d="M148.832 284.076L155.522 280.222C156.057 279.907 155.995 279.372 155.365 279.01L148.738 275.188C148.124 274.826 147.179 274.795 146.644 275.093L139.954 278.963C139.419 279.278 139.482 279.813 140.111 280.174L146.738 283.997C147.368 284.343 148.297 284.39 148.832 284.076Z" fill="#24126A"/>
<path d="M138.506 290.037L145.196 286.183C145.731 285.869 145.668 285.334 145.038 284.972L138.411 281.15C137.797 280.788 136.853 280.756 136.318 281.055L129.627 284.909C129.092 285.224 129.155 285.759 129.785 286.121L136.412 289.943C137.026 290.321 137.97 290.352 138.506 290.037Z" fill="#24126A"/>
<path d="M120.119 300.64L134.728 292.208C135.263 291.894 135.2 291.359 134.57 290.997L127.943 287.175C127.329 286.813 126.385 286.781 125.849 287.08L111.241 295.512C110.706 295.826 110.769 296.361 111.399 296.723L118.026 300.546C118.64 300.907 119.584 300.955 120.119 300.64Z" fill="#24126A"/>
<path d="M100.002 289.031L112.327 281.921C112.863 281.607 112.8 281.072 112.17 280.71L105.543 276.888C104.929 276.526 103.984 276.494 103.449 276.793L91.1234 283.903C90.5881 284.218 90.6511 284.753 91.2808 285.115L97.908 288.937C98.5219 289.299 99.4664 289.346 100.002 289.031Z" fill="#24126A"/>
<path d="M203.093 241.163L209.784 237.293C210.319 236.979 210.256 236.444 209.626 236.082L202.999 232.26C202.385 231.898 201.441 231.866 200.905 232.165L194.215 236.035C193.68 236.35 193.743 236.884 194.373 237.246L201 241.069C201.614 241.43 202.558 241.478 203.093 241.163Z" fill="#24126A"/>
<path d="M213.688 235.059L220.378 231.19C220.913 230.875 220.85 230.34 220.22 229.979L213.593 226.156C212.979 225.794 212.035 225.763 211.499 226.062L204.809 229.931C204.274 230.246 204.337 230.781 204.967 231.143L211.594 234.965C212.208 235.327 213.152 235.358 213.688 235.059Z" fill="#24126A"/>
<path d="M224.282 228.94L230.972 225.071C231.507 224.756 231.444 224.221 230.814 223.859L224.187 220.037C223.573 219.675 222.629 219.644 222.094 219.943L215.403 223.812C214.868 224.127 214.931 224.662 215.561 225.024L222.188 228.846C222.802 229.208 223.746 229.255 224.282 228.94Z" fill="#24126A"/>
<path d="M234.876 222.821L241.566 218.967C242.101 218.653 242.038 218.118 241.409 217.756L234.781 213.933C234.167 213.572 233.223 213.54 232.688 213.839L225.998 217.709C225.462 218.023 225.525 218.558 226.155 218.92L232.782 222.742C233.396 223.104 234.341 223.136 234.876 222.821Z" fill="#24126A"/>
<path d="M192.751 247.125L199.441 243.255C199.977 242.941 199.914 242.406 199.284 242.044L192.657 238.222C192.043 237.86 191.098 237.828 190.563 238.127L183.873 241.997C183.338 242.311 183.401 242.846 184.03 243.208L190.658 247.031C191.287 247.392 192.216 247.44 192.751 247.125Z" fill="#24126A"/>
<path d="M182.425 253.087L189.115 249.233C189.65 248.918 189.587 248.383 188.957 248.022L182.33 244.199C181.716 243.837 180.772 243.806 180.237 244.105L173.546 247.974C173.011 248.289 173.074 248.824 173.704 249.186L180.331 253.008C180.945 253.37 181.889 253.401 182.425 253.087Z" fill="#24126A"/>
<path d="M172.082 259.049L178.773 255.179C179.308 254.864 179.245 254.33 178.615 253.968L171.988 250.145C171.374 249.784 170.43 249.752 169.894 250.051L163.204 253.921C162.669 254.235 162.732 254.77 163.362 255.132L169.989 258.954C170.603 259.332 171.547 259.363 172.082 259.049Z" fill="#24126A"/>
<path d="M161.74 265.026L168.43 261.157C168.966 260.842 168.903 260.307 168.273 259.945L161.646 256.123C161.032 255.761 160.087 255.73 159.552 256.028L152.862 259.898C152.327 260.213 152.39 260.748 153.019 261.109L159.647 264.932C160.276 265.294 161.205 265.325 161.74 265.026Z" fill="#24126A"/>
<path d="M151.414 270.989L158.104 267.135C158.639 266.82 158.576 266.285 157.946 265.923L151.319 262.101C150.705 261.739 149.761 261.708 149.226 262.007L142.535 265.86C142 266.175 142.063 266.71 142.693 267.072L149.32 270.894C149.934 271.256 150.878 271.287 151.414 270.989Z" fill="#24126A"/>
<path d="M141.071 276.95L147.762 273.08C148.297 272.765 148.234 272.231 147.604 271.869L140.977 268.046C140.363 267.684 139.419 267.653 138.883 267.952L132.193 271.806C131.658 272.12 131.721 272.655 132.351 273.017L138.978 276.84C139.592 277.217 140.536 277.264 141.071 276.95Z" fill="#24126A"/>
<path d="M130.729 282.912L137.419 279.042C137.955 278.727 137.892 278.192 137.262 277.831L130.635 274.008C130.021 273.646 129.076 273.615 128.541 273.914L121.851 277.768C121.316 278.082 121.379 278.617 122.008 278.979L128.636 282.801C129.265 283.179 130.194 283.226 130.729 282.912Z" fill="#24126A"/>
<path d="M120.403 288.873L127.093 285.019C127.628 284.705 127.565 284.17 126.936 283.808L120.308 279.986C119.694 279.624 118.75 279.592 118.215 279.891L111.525 283.745C110.989 284.06 111.052 284.595 111.682 284.956L118.309 288.779C118.923 289.141 119.868 289.188 120.403 288.873Z" fill="#24126A"/>
<path d="M110.061 294.835L116.751 290.981C117.286 290.667 117.223 290.132 116.593 289.77L109.966 285.948C109.352 285.586 108.408 285.554 107.872 285.853L101.182 289.723C100.647 290.038 100.71 290.572 101.34 290.934L107.967 294.757C108.581 295.103 109.525 295.15 110.061 294.835Z" fill="#24126A"/>
<path d="M208.54 226.408L215.23 222.538C215.765 222.223 215.702 221.689 215.073 221.327L208.446 217.504C207.832 217.142 206.887 217.111 206.352 217.41L199.662 221.28C199.127 221.594 199.19 222.129 199.819 222.491L206.446 226.313C207.06 226.691 208.005 226.722 208.54 226.408Z" fill="#24126A"/>
<path d="M218.819 220.478L225.51 216.608C226.045 216.294 225.982 215.759 225.352 215.397L218.725 211.575C218.111 211.213 217.166 211.181 216.631 211.48L209.941 215.35C209.406 215.664 209.469 216.199 210.098 216.561L216.726 220.384C217.34 220.745 218.284 220.793 218.819 220.478Z" fill="#24126A"/>
<path d="M229.114 214.548L235.805 210.694C236.34 210.379 236.277 209.844 235.647 209.482L229.02 205.66C228.406 205.298 227.462 205.267 226.926 205.566L220.236 209.435C219.701 209.75 219.764 210.285 220.394 210.647L227.021 214.469C227.635 214.815 228.563 214.862 229.114 214.548Z" fill="#24126A"/>
<path d="M239.394 208.617L246.084 204.747C246.619 204.433 246.556 203.898 245.926 203.536L239.299 199.714C238.685 199.352 237.741 199.32 237.206 199.619L230.515 203.473C229.98 203.788 230.043 204.323 230.673 204.685L237.3 208.507C237.914 208.885 238.858 208.916 239.394 208.617Z" fill="#24126A"/>
<path d="M228.815 202.514L235.505 198.644C236.041 198.329 235.978 197.794 235.348 197.433L233.16 196.174C232.546 195.812 231.602 195.781 231.066 196.08L224.376 199.949C223.841 200.264 223.904 200.799 224.534 201.161L226.722 202.419C227.336 202.781 228.28 202.812 228.815 202.514Z" fill="#24126A"/>
<path d="M215.388 210.253L222.078 206.383C222.613 206.068 222.55 205.534 221.92 205.172L219.732 203.913C219.118 203.552 218.174 203.52 217.639 203.819L210.949 207.689C210.413 208.003 210.476 208.538 211.106 208.9L213.294 210.158C213.924 210.52 214.852 210.567 215.388 210.253Z" fill="#24126A"/>
<path d="M205.156 216.167L211.846 212.298C212.381 211.983 212.318 211.448 211.688 211.086L209.5 209.828C208.886 209.466 207.942 209.435 207.407 209.734L200.716 213.603C200.181 213.918 200.244 214.453 200.874 214.814L203.062 216.073C203.676 216.435 204.62 216.466 205.156 216.167Z" fill="#24126A"/>
<path d="M194.908 222.067L201.598 218.197C202.133 217.882 202.07 217.348 201.441 216.986L199.253 215.727C198.639 215.366 197.694 215.334 197.159 215.633L190.469 219.487C189.933 219.802 189.996 220.336 190.626 220.698L192.814 221.957C193.428 222.35 194.373 222.381 194.908 222.067Z" fill="#24126A"/>
<path d="M184.66 227.981L191.35 224.127C191.885 223.813 191.822 223.278 191.193 222.916L189.005 221.658C188.391 221.296 187.446 221.264 186.911 221.563L180.221 225.433C179.686 225.747 179.749 226.282 180.378 226.644L182.566 227.903C183.196 228.249 184.125 228.296 184.66 227.981Z" fill="#24126A"/>
<path d="M127.486 260.968L134.177 257.098C134.712 256.784 134.649 256.249 134.019 255.887L131.831 254.629C131.217 254.267 130.273 254.235 129.737 254.534L123.047 258.404C122.512 258.719 122.575 259.253 123.205 259.615L125.393 260.874C126.007 261.251 126.951 261.283 127.486 260.968Z" fill="#24126A"/>
<path d="M117.239 266.882L123.929 263.012C124.464 262.698 124.401 262.163 123.771 261.801L121.583 260.543C120.969 260.181 120.025 260.15 119.49 260.448L112.8 264.318C112.264 264.633 112.327 265.168 112.957 265.529L115.145 266.788C115.759 267.15 116.703 267.197 117.239 266.882Z" fill="#24126A"/>
<path d="M106.991 272.797L113.681 268.943C114.216 268.629 114.153 268.094 113.524 267.732L111.336 266.473C110.722 266.112 109.777 266.08 109.242 266.379L102.552 270.249C102.017 270.563 102.08 271.098 102.709 271.46L104.897 272.718C105.527 273.065 106.456 273.096 106.991 272.797Z" fill="#24126A"/>
<path d="M96.7588 278.696L103.449 274.842C103.984 274.527 103.921 273.993 103.292 273.631L101.104 272.372C100.49 272.011 99.5451 271.979 99.0099 272.278L92.3197 276.148C91.7845 276.462 91.8475 276.997 92.4771 277.359L94.6652 278.617C95.2791 278.979 96.2236 279.011 96.7588 278.696Z" fill="#24126A"/>
<path d="M198.198 232.37L204.888 228.5C205.423 228.186 205.36 227.651 204.731 227.289L198.103 223.467C197.489 223.105 196.545 223.073 196.01 223.372L189.32 227.242C188.784 227.557 188.847 228.091 189.477 228.453L196.104 232.276C196.718 232.653 197.663 232.685 198.198 232.37Z" fill="#24126A"/>
<path d="M187.856 238.348L194.546 234.478C195.081 234.163 195.018 233.628 194.388 233.267L187.761 229.444C187.147 229.082 186.203 229.051 185.668 229.35L178.977 233.204C178.442 233.518 178.505 234.053 179.135 234.415L185.762 238.237C186.392 238.615 187.32 238.646 187.856 238.348Z" fill="#24126A"/>
<path d="M177.529 244.309L184.219 240.455C184.754 240.141 184.691 239.606 184.062 239.244L177.435 235.422C176.821 235.06 175.876 235.028 175.341 235.327L168.651 239.197C168.116 239.512 168.179 240.046 168.808 240.408L175.435 244.231C176.049 244.577 176.994 244.608 177.529 244.309Z" fill="#24126A"/>
<path d="M167.187 250.271L173.877 246.417C174.412 246.103 174.349 245.568 173.72 245.206L167.092 241.384C166.478 241.022 165.534 240.99 164.999 241.289L158.309 245.143C157.773 245.458 157.836 245.993 158.466 246.354L165.093 250.177C165.707 250.539 166.652 250.586 167.187 250.271Z" fill="#24126A"/>
<path d="M156.845 256.233L163.535 252.364C164.07 252.049 164.007 251.514 163.377 251.152L156.75 247.33C156.136 246.968 155.192 246.937 154.656 247.236L147.966 251.105C147.431 251.42 147.494 251.955 148.124 252.316L154.751 256.139C155.381 256.501 156.309 256.548 156.845 256.233Z" fill="#24126A"/>
<path d="M146.518 262.195L153.208 258.325C153.743 258.01 153.681 257.476 153.051 257.114L146.424 253.291C145.81 252.93 144.865 252.898 144.33 253.197L137.64 257.067C137.105 257.381 137.168 257.916 137.797 258.278L144.424 262.1C145.038 262.462 145.983 262.509 146.518 262.195Z" fill="#24126A"/>
<path d="M136.176 268.157L142.866 264.303C143.401 263.988 143.338 263.453 142.709 263.091L136.081 259.269C135.467 258.907 134.523 258.876 133.988 259.174L127.298 263.044C126.762 263.359 126.825 263.894 127.455 264.255L134.082 268.078C134.696 268.424 135.641 268.471 136.176 268.157Z" fill="#24126A"/>
<path d="M125.834 274.118L132.524 270.265C133.059 269.95 132.996 269.415 132.366 269.053L125.739 265.231C125.125 264.869 124.181 264.838 123.646 265.136L116.955 269.006C116.42 269.321 116.483 269.856 117.113 270.217L123.74 274.04C124.37 274.402 125.298 274.433 125.834 274.118Z" fill="#24126A"/>
<path d="M115.507 280.081L122.197 276.211C122.732 275.896 122.67 275.361 122.04 275L115.413 271.177C114.799 270.815 113.854 270.784 113.319 271.083L106.629 274.952C106.094 275.267 106.157 275.802 106.786 276.164L113.413 279.986C114.027 280.364 114.972 280.395 115.507 280.081Z" fill="#24126A"/>
<path d="M257.292 233.109L277 221.736C277.536 221.422 277.473 220.887 276.843 220.525L270.216 216.702C269.602 216.341 268.657 216.309 268.122 216.608L248.414 227.981C247.878 228.296 247.941 228.831 248.571 229.192L255.198 233.015C255.828 233.392 256.757 233.424 257.292 233.109Z" fill="#24126A"/>
<path d="M130.304 306.381L150.013 295.008C150.548 294.694 150.485 294.159 149.855 293.797L143.228 289.974C142.614 289.613 141.67 289.581 141.134 289.88L121.426 301.253C120.891 301.568 120.954 302.103 121.583 302.464L128.211 306.287C128.825 306.649 129.769 306.696 130.304 306.381Z" fill="#24126A"/>
<path d="M171.642 295.701L178.332 291.847C178.867 291.532 178.804 290.997 178.174 290.635L170.272 286.074C169.658 285.712 168.714 285.68 168.179 285.979L161.488 289.833C160.953 290.148 161.016 290.683 161.646 291.044L169.548 295.606C170.162 295.968 171.106 296.015 171.642 295.701Z" fill="#24126A"/>
<path d="M246.714 252.395L257.418 246.213C257.953 245.898 257.89 245.363 257.26 245.002L249.358 240.44C248.744 240.078 247.8 240.047 247.264 240.345L236.56 246.527C236.025 246.842 236.088 247.377 236.718 247.739L244.62 252.301C245.234 252.662 246.178 252.71 246.714 252.395Z" fill="#24126A"/>
<path d="M181.606 289.959L192.31 283.777C192.846 283.463 192.783 282.928 192.153 282.566L184.251 278.004C183.637 277.642 182.692 277.611 182.157 277.91L171.453 284.092C170.918 284.407 170.981 284.941 171.61 285.303L179.513 289.865C180.126 290.227 181.071 290.274 181.606 289.959Z" fill="#24126A"/>
<path d="M231.79 260.999L242.495 254.817C243.03 254.503 242.967 253.968 242.337 253.606L234.435 249.044C233.821 248.682 232.877 248.651 232.341 248.95L221.637 255.132C221.102 255.447 221.165 255.981 221.795 256.343L229.697 260.905C230.326 261.267 231.255 261.314 231.79 260.999Z" fill="#24126A"/>
<path d="M232.278 249.013L185.73 275.865C185.148 276.195 185.148 276.746 185.73 277.076L193.79 281.717C194.373 282.047 195.301 282.047 195.884 281.717L242.432 254.865L232.278 249.013Z" fill="#24126A"/>
<path d="M142.756 306.523L135.294 310.818C134.854 311.069 134.917 311.51 135.42 311.809L138.647 313.681C139.151 313.979 139.922 314.011 140.363 313.759L147.825 309.465C148.265 309.213 148.202 308.773 147.699 308.474L144.472 306.602C143.968 306.287 143.197 306.256 142.756 306.523Z" fill="#24126A"/>
<path d="M153.177 300.498L145.715 304.793C145.275 305.044 145.338 305.485 145.841 305.784L149.068 307.656C149.572 307.955 150.343 307.986 150.784 307.734L158.246 303.44C158.686 303.188 158.623 302.748 158.12 302.449L154.893 300.577C154.389 300.278 153.618 300.247 153.177 300.498Z" fill="#24126A"/>
<path d="M163.519 294.536L156.058 298.831C155.617 299.082 155.68 299.523 156.183 299.822L159.41 301.694C159.914 301.993 160.686 302.024 161.126 301.772L168.588 297.478C169.029 297.226 168.966 296.786 168.462 296.487L165.235 294.615C164.731 294.316 163.96 294.285 163.519 294.536Z" fill="#24126A"/>
<path d="M147.463 297.211L140.001 301.506C139.56 301.757 139.623 302.198 140.127 302.497L143.354 304.369C143.858 304.667 144.629 304.699 145.07 304.447L152.531 300.153C152.972 299.901 152.909 299.461 152.405 299.162L149.178 297.29C148.675 296.991 147.903 296.959 147.463 297.211Z" fill="#24126A"/>
</g>
<path d="M41.0965 136.304C40.4353 136.021 39.9631 135.423 39.7899 134.636C39.4122 133.001 40.3881 130.94 41.978 130.027C42.8281 129.54 43.7254 129.445 44.4652 129.76C45.1264 130.043 45.5986 130.641 45.7718 131.427C46.1496 133.063 45.1736 135.124 43.5837 136.036C43.0642 136.335 42.529 136.477 42.0253 136.477C41.6947 136.493 41.3798 136.43 41.0965 136.304ZM42.3243 130.657C41.0021 131.427 40.1677 133.142 40.4826 134.479C40.6085 135.045 40.9233 135.454 41.3798 135.643C41.8993 135.863 42.5762 135.785 43.2216 135.423C44.5439 134.652 45.3782 132.938 45.0634 131.601C44.9375 131.034 44.6069 130.625 44.1661 130.436C43.9772 130.358 43.7568 130.311 43.5207 130.311C43.1429 130.311 42.7336 130.421 42.3243 130.657Z" fill="#42E8E0"/>
<path d="M32.5645 141.227C31.9033 140.944 31.4311 140.347 31.2579 139.56C30.8801 137.924 31.8561 135.863 33.446 134.951C34.2961 134.463 35.1933 134.369 35.9332 134.684C36.5943 134.967 37.0666 135.565 37.2398 136.351C37.6176 137.987 36.6416 140.048 35.0517 140.96C34.5322 141.259 33.997 141.401 33.4933 141.401C33.1627 141.416 32.8478 141.353 32.5645 141.227ZM33.8081 135.58C32.4858 136.351 31.6515 138.066 31.9663 139.403C32.0922 139.969 32.4071 140.378 32.8636 140.567C33.3831 140.787 34.0599 140.708 34.7054 140.347C36.0276 139.576 36.862 137.861 36.5471 136.524C36.4212 135.958 36.0906 135.549 35.6498 135.36C35.4609 135.281 35.2406 135.234 35.0044 135.234C34.6266 135.218 34.2016 135.344 33.8081 135.58Z" fill="#42E8E0"/>
<path d="M23.0881 144.405C23.4344 145.9 24.8984 146.419 26.3466 145.585C27.8105 144.751 28.7078 142.864 28.3615 141.369C28.0152 139.875 26.5512 139.356 25.103 140.189C23.639 141.023 22.7418 142.911 23.0881 144.405Z" fill="#42E8E0"/>
<path d="M186.502 50.4155L191.067 47.7885L190.705 45.6807L186.155 48.3077L186.502 50.4155Z" fill="#42E8E0"/>
<path d="M179.875 54.238L184.44 51.6111L184.093 49.5032L179.528 52.1302L179.875 54.238Z" fill="#42E8E0"/>
<path d="M193.066 46.6405L203.062 40.8674L202.716 38.7595L192.704 44.5326L193.066 46.6405Z" fill="#42E8E0"/>
<path d="M191.807 86.3753L199.441 81.9708L199.142 80.209L191.508 84.6135L191.807 86.3753Z" fill="#42E8E0"/>
<path d="M185.29 90.135L189.115 87.9327L188.816 86.1709L185.006 88.3731L185.29 90.135Z" fill="#42E8E0"/>
<path d="M190.248 91.8027L193.491 89.9307L193.208 88.1689L189.949 90.0408L190.248 91.8027Z" fill="#42E8E0"/>
<path d="M184.802 94.9487L188.611 92.7464L188.328 90.9846L184.503 93.1869L184.802 94.9487Z" fill="#42E8E0"/>
<path d="M179.198 102.719L194.199 94.0677L193.9 92.3059L178.899 100.958L179.198 102.719Z" fill="#42E8E0"/>
<path d="M192.2 137.311L207.186 128.659L206.887 126.897L191.901 135.549L192.2 137.311Z" fill="#42E8E0"/>
<path d="M186.439 140.63L190.248 138.427L189.949 136.666L186.14 138.868L186.439 140.63Z" fill="#42E8E0"/>
<path d="M191.634 100.076L194.892 98.2044L194.593 96.4426L191.334 98.3146L191.634 100.076Z" fill="#42E8E0"/>
<path d="M186.187 103.207L190.012 101.021L189.713 99.2588L185.888 101.445L186.187 103.207Z" fill="#42E8E0"/>
<path d="M187.336 107.077L195.585 102.326L195.286 100.564L187.037 105.315L187.336 107.077Z" fill="#42E8E0"/>
<path d="M181.827 110.27L185.636 108.067L185.337 106.306L181.527 108.508L181.827 110.27Z" fill="#42E8E0"/>
<path d="M176.27 113.463L180.095 111.261L179.796 109.499L175.986 111.702L176.27 113.463Z" fill="#42E8E0"/>
<path d="M167.329 118.622L174.538 114.47L174.255 112.708L167.029 116.861L167.329 118.622Z" fill="#42E8E0"/>
<path d="M173.043 124.396L176.852 122.194L176.553 120.432L172.744 122.634L173.043 124.396Z" fill="#42E8E0"/>
<path d="M164.086 129.555L171.311 125.402L171.012 123.641L163.802 127.793L164.086 129.555Z" fill="#42E8E0"/>
<path d="M193.145 112.802L196.97 110.6L196.671 108.838L192.861 111.025L193.145 112.802Z" fill="#42E8E0"/>
<path d="M187.604 115.996L191.413 113.794L191.13 112.032L187.305 114.234L187.604 115.996Z" fill="#42E8E0"/>
<path d="M178.662 121.156L185.872 116.987L185.573 115.225L178.363 119.394L178.662 121.156Z" fill="#42E8E0"/>
<path d="M166.935 123.389L170.744 121.187L170.445 119.425L166.636 121.627L166.935 123.389Z" fill="#42E8E0"/>
<path d="M161.378 126.583L165.203 124.396L164.904 122.634L161.095 124.821L161.378 126.583Z" fill="#42E8E0"/>
<path d="M152.437 131.758L159.662 127.589L159.363 125.827L152.138 129.996L152.437 131.758Z" fill="#42E8E0"/>
<path d="M180.457 144.075L184.282 141.872L183.983 140.111L180.174 142.313L180.457 144.075Z" fill="#42E8E0"/>
<path d="M171.516 149.234L178.725 145.081L178.442 143.319L171.217 147.472L171.516 149.234Z" fill="#42E8E0"/>
<path d="M194.53 121.061L198.355 118.859L198.056 117.097L194.247 119.299L194.53 121.061Z" fill="#42E8E0"/>
<path d="M185.589 126.221L192.814 122.052L192.515 120.291L185.29 124.459L185.589 126.221Z" fill="#42E8E0"/>
<path d="M176.301 151.011L180.126 148.809L179.827 147.047L176.018 149.25L176.301 151.011Z" fill="#42E8E0"/>
<path d="M167.36 156.171L174.57 152.003L174.286 150.241L167.061 154.41L167.36 156.171Z" fill="#42E8E0"/>
<path d="M167.801 109.294L171.61 107.092L171.311 105.33L167.502 107.533L167.801 109.294Z" fill="#42E8E0"/>
<path d="M173.562 105.96L177.387 103.758L177.088 101.996L173.263 104.198L173.562 105.96Z" fill="#42E8E0"/>
<path d="M158.844 114.454L166.069 110.286L165.77 108.524L158.56 112.692L158.844 114.454Z" fill="#42E8E0"/>
<path d="M192.83 108.445L196.277 106.463L195.978 104.701L192.531 106.683L192.83 108.445Z" fill="#42E8E0"/>
<path d="M182.629 114.328L190.988 109.514L190.689 107.753L182.33 112.566L182.629 114.328Z" fill="#42E8E0"/>
<path d="M172.413 120.227L180.788 115.398L180.488 113.636L172.13 118.465L172.413 120.227Z" fill="#42E8E0"/>
<path d="M153.555 117.521L156.986 115.524L156.687 113.762L153.255 115.759L153.555 117.521Z" fill="#42E8E0"/>
<path d="M143.338 123.405L151.713 118.576L151.414 116.814L143.039 121.643L143.338 123.405Z" fill="#42E8E0"/>
<path d="M133.138 129.288L141.497 124.459L141.197 122.697L132.839 127.526L133.138 129.288Z" fill="#42E8E0"/>
<path d="M189.225 119.598L197.584 114.769L197.285 113.007L188.926 117.836L189.225 119.598Z" fill="#42E8E0"/>
<path d="M184.802 122.147L187.383 120.652L187.084 118.891L184.518 120.385L184.802 122.147Z" fill="#42E8E0"/>
<path d="M180.394 124.695L182.96 123.201L182.661 121.439L180.095 122.933L180.394 124.695Z" fill="#42E8E0"/>
<path d="M172.224 129.398L178.537 125.765L178.237 123.987L171.925 127.637L172.224 129.398Z" fill="#42E8E0"/>
<path d="M163.063 121.093L165.628 119.614L165.329 117.852L162.763 119.331L163.063 121.093Z" fill="#42E8E0"/>
<path d="M154.893 125.812L161.205 122.162L160.922 120.4L154.594 124.05L154.893 125.812Z" fill="#42E8E0"/>
<path d="M153.177 126.803L159.489 123.153L159.19 121.392L152.878 125.041L153.177 126.803Z" fill="#42E8E0"/>
<path d="M186.817 149.47L195.065 144.72L194.766 142.958L186.533 147.708L186.817 149.47Z" fill="#42E8E0"/>
<path d="M181.307 152.648L185.116 150.446L184.833 148.684L181.008 150.886L181.307 152.648Z" fill="#42E8E0"/>
<path d="M175.766 155.856L179.575 153.654L179.276 151.892L175.467 154.095L175.766 155.856Z" fill="#42E8E0"/>
<path d="M166.809 161.016L174.034 156.848L173.735 155.086L166.51 159.254L166.809 161.016Z" fill="#42E8E0"/>
<path d="M161.095 164.32L164.904 162.117L164.605 160.355L160.796 162.558L161.095 164.32Z" fill="#42E8E0"/>
<path d="M152.138 169.479L159.363 165.311L159.064 163.549L151.839 167.718L152.138 169.479Z" fill="#42E8E0"/>
<path d="M179.591 162.715L183.401 160.513L183.117 158.751L179.292 160.938L179.591 162.715Z" fill="#42E8E0"/>
<path d="M170.65 167.875L177.86 163.706L177.561 161.945L170.351 166.113L170.65 167.875Z" fill="#42E8E0"/>
<path d="M199.52 151.216L203.33 149.014L203.03 147.252L199.221 149.455L199.52 151.216Z" fill="#42E8E0"/>
<path d="M193.963 154.409L197.789 152.207L197.489 150.445L193.68 152.648L193.963 154.409Z" fill="#42E8E0"/>
<path d="M185.022 159.569L192.247 155.416L191.948 153.655L184.723 157.807L185.022 159.569Z" fill="#42E8E0"/>
<path d="M192.31 150.838L195.758 148.841L195.459 147.079L192.027 149.077L192.31 150.838Z" fill="#42E8E0"/>
<path d="M182.11 156.722L190.469 151.893L190.185 150.131L181.811 154.96L182.11 156.722Z" fill="#42E8E0"/>
<path d="M171.909 162.605L180.268 157.792L179.969 156.014L171.61 160.843L171.909 162.605Z" fill="#42E8E0"/>
<path d="M202.338 154.126L210.697 149.297L210.398 147.535L202.039 152.365L202.338 154.126Z" fill="#42E8E0"/>
<path d="M197.914 156.659L200.496 155.181L200.197 153.419L197.631 154.897L197.914 156.659Z" fill="#42E8E0"/>
<path d="M193.507 159.208L196.073 157.729L195.774 155.967L193.208 157.446L193.507 159.208Z" fill="#42E8E0"/>
<path d="M185.337 163.927L191.649 160.277L191.35 158.515L185.038 162.165L185.337 163.927Z" fill="#42E8E0"/>
<path d="M183.621 164.918L189.933 161.268L189.634 159.506L183.322 163.156L183.621 164.918Z" fill="#42E8E0"/>
<path d="M198.56 138.16L201.126 136.681L200.842 134.92L198.261 136.398L198.56 138.16Z" fill="#42E8E0"/>
<path d="M190.39 142.879L196.718 139.23L196.419 137.468L190.091 141.117L190.39 142.879Z" fill="#42E8E0"/>
<path d="M182.047 147.693L188.359 144.044L188.076 142.282L181.748 145.931L182.047 147.693Z" fill="#42E8E0"/>
<path d="M149.871 175.315L153.696 173.113L153.397 171.351L149.588 173.553L149.871 175.315Z" fill="#42E8E0"/>
<path d="M140.93 180.475L148.139 176.322L147.856 174.561L140.631 178.713L140.93 180.475Z" fill="#42E8E0"/>
<path d="M163.96 167.198L170.288 163.549L169.989 161.787L163.661 165.436L163.96 167.198Z" fill="#42E8E0"/>
<path d="M155.617 172.012L161.929 168.362L161.646 166.6L155.318 170.25L155.617 172.012Z" fill="#42E8E0"/>
<path d="M203.03 120.683L205.596 119.205L205.313 117.443L202.731 118.922L203.03 120.683Z" fill="#42E8E0"/>
<path d="M194.861 125.402L201.189 121.753L200.89 119.991L194.561 123.64L194.861 125.402Z" fill="#42E8E0"/>
<path d="M186.518 130.216L192.83 126.566L192.547 124.805L186.218 128.454L186.518 130.216Z" fill="#42E8E0"/>
<path d="M59.2151 194.192C58.2391 193.736 57.5622 192.713 57.3418 191.392L54.0676 171.918C53.6425 169.385 54.9963 166.333 57.0742 165.138L108.171 135.659C109.179 135.077 110.234 134.998 111.131 135.407C112.107 135.863 112.784 136.886 113.004 138.207L116.278 157.682C116.703 160.214 115.35 163.266 113.272 164.461L62.1745 193.94C61.5921 194.286 60.9781 194.459 60.4114 194.459C59.9864 194.459 59.5771 194.365 59.2151 194.192ZM108.518 136.272L57.4205 165.751C55.5788 166.821 54.3824 169.527 54.7602 171.792L58.0345 191.266C58.2233 192.351 58.7586 193.185 59.5142 193.547C60.1911 193.862 61.0096 193.783 61.7967 193.327L112.894 163.848C114.736 162.778 115.932 160.073 115.554 157.807L112.28 138.333C112.091 137.248 111.556 136.414 110.8 136.068C110.533 135.942 110.234 135.879 109.919 135.879C109.478 135.863 109.006 136.005 108.518 136.272Z" fill="#42E8E0"/>
<path d="M64.8348 227.666C63.8588 227.21 63.182 226.187 62.9616 224.866L59.6873 205.392C59.2623 202.859 60.6161 199.807 62.694 198.612L113.791 169.133C114.799 168.551 115.853 168.457 116.751 168.881C117.711 169.338 118.404 170.36 118.624 171.681L121.898 191.156C122.323 193.688 120.969 196.74 118.892 197.936L67.7943 227.414C67.2118 227.76 66.5979 227.918 66.0312 227.918C65.6062 227.934 65.1969 227.839 64.8348 227.666ZM118.514 197.322C120.356 196.252 121.552 193.547 121.174 191.282L117.9 171.807C117.711 170.722 117.176 169.888 116.436 169.542C115.759 169.228 114.94 169.306 114.138 169.762L63.0403 199.241C61.1985 200.311 60.0021 203.017 60.3799 205.282L63.6542 224.756C63.8431 225.841 64.3783 226.675 65.1339 227.037C65.8108 227.351 66.6294 227.273 67.4164 226.817L118.514 197.322Z" fill="#42E8E0"/>
<path opacity="0.5" d="M108.659 162.369C107.762 162.888 106.944 162.7 106.645 161.882L100.694 145.616C100.017 143.76 97.2311 145.443 96.6486 148.055L92.9808 164.43C92.7132 165.625 91.8789 166.821 90.9344 167.356L90.0529 167.859C89.2029 168.347 88.4315 168.205 88.1009 167.497L86.8888 164.933C86.1332 163.344 83.6303 164.839 82.9534 167.293C82.6386 168.425 81.8515 169.511 80.97 170.014L80.1986 170.455C79.2699 170.99 78.4513 170.769 78.168 169.904L77.0661 166.506C76.4364 164.587 73.6501 166.192 73.0205 168.819L69.3527 183.967C69.0693 185.163 68.235 186.327 67.2905 186.846L108.659 162.369Z" fill="url(#paint6_linear_42_22)"/>
<path d="M73.7604 220.226C74.7836 219.659 75.6809 218.401 75.9957 217.111L79.6635 201.963C80.057 200.358 81.3636 199.115 82.2766 199.068C82.6386 199.052 82.8905 199.241 83.0322 199.666L84.1341 203.064C84.2915 203.551 84.5906 203.882 85.0156 204.055C85.5036 204.243 86.0861 204.165 86.6842 203.819L87.4556 203.378C88.4158 202.828 89.2659 201.664 89.6122 200.437C90.0529 198.879 91.265 197.762 92.1308 197.684C92.4772 197.652 92.729 197.794 92.8864 198.14L94.0985 200.704C94.2874 201.097 94.5865 201.365 94.9643 201.491C95.4366 201.632 95.9875 201.554 96.5542 201.223L97.4358 200.72C98.4747 200.122 99.3562 198.848 99.6396 197.558L103.307 181.183C103.669 179.562 104.976 178.288 105.905 178.225C106.267 178.21 106.519 178.383 106.676 178.776L112.642 195.041C112.815 195.497 113.114 195.812 113.524 195.969C113.996 196.142 114.578 196.048 115.161 195.718L114.799 195.104C114.405 195.324 114.043 195.403 113.76 195.293C113.555 195.214 113.398 195.057 113.303 194.789L107.337 178.524C107.085 177.832 106.534 177.439 105.858 177.502C104.645 177.58 103.056 179.012 102.599 181.01L98.9312 197.385C98.6793 198.486 97.9237 199.587 97.058 200.091L96.1764 200.594C95.7986 200.814 95.4366 200.877 95.169 200.798C94.9801 200.736 94.8227 200.594 94.7282 200.389L93.5161 197.825C93.2327 197.228 92.6975 196.897 92.0521 196.976C90.7613 197.086 89.3761 198.518 88.9038 200.248C88.6205 201.286 87.8806 202.293 87.0778 202.765L86.3064 203.205C85.9129 203.441 85.5351 203.504 85.2517 203.394C85.0471 203.315 84.8897 203.127 84.7952 202.859L83.6933 199.461C83.4729 198.769 82.9535 198.376 82.2923 198.376C82.2766 198.376 82.2451 198.376 82.2294 198.376C81.033 198.423 79.4274 199.807 78.9551 201.805L75.2873 216.954C75.0197 218.039 74.2484 219.14 73.3983 219.612L73.7604 220.226Z" fill="#42E8E0"/>
<path d="M92.8392 119C91.6585 118.513 90.8085 117.475 90.415 116.059C89.6436 113.259 91.0131 109.83 93.4846 108.414L133.437 85.3688C134.649 84.6609 135.94 84.535 137.089 85.007C138.269 85.4946 139.12 86.5328 139.513 87.9486C140.284 90.7486 138.899 94.1778 136.443 95.5936L96.4912 118.639C95.7671 119.063 94.9958 119.268 94.2559 119.268C93.7679 119.268 93.2957 119.189 92.8392 119ZM133.783 85.9823L93.8309 109.027C91.6271 110.301 90.3992 113.369 91.0918 115.87C91.4224 117.066 92.1308 117.931 93.091 118.324C94.0355 118.717 95.1059 118.591 96.1134 118.009L136.066 94.9643C138.269 93.6902 139.497 90.6227 138.805 88.1216C138.474 86.9261 137.766 86.0609 136.805 85.6676C136.443 85.5103 136.05 85.4474 135.656 85.4474C135.042 85.4474 134.397 85.6362 133.783 85.9823Z" fill="#42E8E0"/>
<defs>
<linearGradient id="paint0_linear_42_22" x1="0.00584865" y1="145.726" x2="246.086" y2="145.726" gradientUnits="userSpaceOnUse">
<stop stop-color="#C0BFF6"/>
<stop offset="0.2938" stop-color="#C5C4F7"/>
<stop offset="0.6399" stop-color="#D3D2F9"/>
<stop offset="1" stop-color="#E9E9FD"/>
</linearGradient>
<linearGradient id="paint1_linear_42_22" x1="0.00743239" y1="208.789" x2="42.2619" y2="208.789" gradientUnits="userSpaceOnUse">
<stop stop-color="#5761D7"/>
<stop offset="0.1779" stop-color="#5C66D9"/>
<stop offset="0.3876" stop-color="#6A73DF"/>
<stop offset="0.6134" stop-color="#8289E8"/>
<stop offset="0.849" stop-color="#A3A7F5"/>
<stop offset="1" stop-color="#BCBEFF"/>
</linearGradient>
<linearGradient id="paint2_linear_42_22" x1="32.975" y1="277.596" x2="380.52" y2="277.596" gradientUnits="userSpaceOnUse">
<stop stop-color="#5761D7"/>
<stop offset="0.1779" stop-color="#5C66D9"/>
<stop offset="0.3876" stop-color="#6A73DF"/>
<stop offset="0.6134" stop-color="#8289E8"/>
<stop offset="0.849" stop-color="#A3A7F5"/>
<stop offset="1" stop-color="#BCBEFF"/>
</linearGradient>
<linearGradient id="paint3_linear_42_22" x1="-121.426" y1="268.1" x2="390.694" y2="268.1" gradientUnits="userSpaceOnUse">
<stop stop-color="#C0BFF6"/>
<stop offset="0.2938" stop-color="#C5C4F7"/>
<stop offset="0.6399" stop-color="#D3D2F9"/>
<stop offset="1" stop-color="#E9E9FD"/>
</linearGradient>
<linearGradient id="paint4_linear_42_22" x1="-100.667" y1="201.163" x2="246.878" y2="201.163" gradientUnits="userSpaceOnUse">
<stop stop-color="#5761D7"/>
<stop offset="0.1779" stop-color="#5C66D9"/>
<stop offset="0.3876" stop-color="#6A73DF"/>
<stop offset="0.6134" stop-color="#8289E8"/>
<stop offset="0.849" stop-color="#A3A7F5"/>
<stop offset="1" stop-color="#BCBEFF"/>
</linearGradient>
<linearGradient id="paint5_linear_42_22" x1="16.1092" y1="191.666" x2="363.84" y2="191.666" gradientUnits="userSpaceOnUse">
<stop stop-color="#C0BFF6"/>
<stop offset="0.2938" stop-color="#C5C4F7"/>
<stop offset="0.6399" stop-color="#D3D2F9"/>
<stop offset="1" stop-color="#E9E9FD"/>
</linearGradient>
<linearGradient id="paint6_linear_42_22" x1="104.743" y1="156.698" x2="31.3535" y2="188.118" gradientUnits="userSpaceOnUse">
<stop stop-color="#42E8E0"/>
<stop offset="0.1055" stop-color="#37B6BF"/>
<stop offset="0.2197" stop-color="#2C87A1"/>
<stop offset="0.338" stop-color="#235F87"/>
<stop offset="0.4587" stop-color="#1C3F72"/>
<stop offset="0.5824" stop-color="#162561"/>
<stop offset="0.7105" stop-color="#121355"/>
<stop offset="0.8458" stop-color="#10084E"/>
<stop offset="1" stop-color="#0F054C"/>
</linearGradient>
</defs>
</svg>
