<svg width="137" height="155" viewBox="0 0 137 155" fill="none" xmlns="http://www.w3.org/2000/svg">
<path d="M12.4682 139.506L0 0H137L124.515 139.483L68.4168 155L12.4682 139.506Z" fill="#E44F26"/>
<path d="M68 143L113.335 130.436L124 11H68V143Z" fill="#F1662A"/>
<path d="M68 62.6702H45.3071L43.7425 45.13H68V28H25L25.4106 32.5998L29.6218 79.8002H68V62.6702ZM68 107.155L67.9223 107.177L48.8248 102.029L47.6041 88.368H30.3875L32.7899 115.257L67.9223 125L68 124.978V107.155Z" fill="#EBEBEB"/>
<path d="M68 62.6722V79.8032H89.1363L87.1481 102.022L68 107.176V125L103.192 115.262L103.447 112.369L107.479 67.2722L107.901 62.6722H68ZM68 28V45.131H109.462L109.806 41.2847L110.589 32.6L111 28H68Z" fill="white"/>
</svg>
