<svg width="157" height="82" viewBox="0 0 157 82" fill="none" xmlns="http://www.w3.org/2000/svg">
<path d="M28.93 33L37.45 12.18H39.49L47.98 33H44.92L37.93 15.39H38.98L31.93 33H28.93ZM32.98 28.29V25.83H43.93V28.29H32.98ZM60.9487 33V24.69C60.9487 23.61 60.6087 22.72 59.9287 22.02C59.2487 21.32 58.3687 20.97 57.2887 20.97C56.5687 20.97 55.9287 21.13 55.3687 21.45C54.8087 21.77 54.3687 22.21 54.0487 22.77C53.7287 23.33 53.5687 23.97 53.5687 24.69L52.4587 24.06C52.4587 22.98 52.6987 22.02 53.1787 21.18C53.6587 20.34 54.3287 19.68 55.1887 19.2C56.0487 18.7 57.0187 18.45 58.0987 18.45C59.1787 18.45 60.1287 18.72 60.9487 19.26C61.7887 19.8 62.4487 20.51 62.9287 21.39C63.4087 22.25 63.6487 23.17 63.6487 24.15V33H60.9487ZM50.8687 33V18.75H53.5687V33H50.8687ZM73.3342 33.3C72.0142 33.3 70.8342 32.98 69.7942 32.34C68.7542 31.68 67.9242 30.79 67.3042 29.67C66.7042 28.55 66.4042 27.29 66.4042 25.89C66.4042 24.49 66.7042 23.23 67.3042 22.11C67.9242 20.99 68.7542 20.1 69.7942 19.44C70.8342 18.78 72.0142 18.45 73.3342 18.45C74.3942 18.45 75.3542 18.68 76.2142 19.14C77.0742 19.58 77.7642 20.2 78.2842 21C78.8242 21.78 79.1242 22.69 79.1842 23.73V28.02C79.1242 29.04 78.8342 29.95 78.3142 30.75C77.7942 31.55 77.1042 32.18 76.2442 32.64C75.3842 33.08 74.4142 33.3 73.3342 33.3ZM73.7842 30.75C74.6842 30.75 75.4642 30.54 76.1242 30.12C76.8042 29.7 77.3342 29.13 77.7142 28.41C78.0942 27.67 78.2842 26.83 78.2842 25.89C78.2842 24.91 78.0842 24.06 77.6842 23.34C77.3042 22.62 76.7742 22.05 76.0942 21.63C75.4342 21.21 74.6542 21 73.7542 21C72.8542 21 72.0642 21.21 71.3842 21.63C70.7042 22.05 70.1642 22.63 69.7642 23.37C69.3842 24.09 69.1942 24.92 69.1942 25.86C69.1942 26.82 69.3842 27.67 69.7642 28.41C70.1642 29.13 70.7042 29.7 71.3842 30.12C72.0842 30.54 72.8842 30.75 73.7842 30.75ZM80.8342 33H78.1042V29.16L78.6142 25.68L78.1042 22.23V11.58H80.8342V33ZM91.3652 33.3C89.9452 33.3 88.6652 32.98 87.5252 32.34C86.3852 31.68 85.4852 30.79 84.8252 29.67C84.1652 28.55 83.8352 27.28 83.8352 25.86C83.8352 24.46 84.1552 23.2 84.7952 22.08C85.4552 20.96 86.3352 20.08 87.4352 19.44C88.5552 18.78 89.8052 18.45 91.1852 18.45C92.5052 18.45 93.6652 18.75 94.6652 19.35C95.6852 19.95 96.4752 20.78 97.0352 21.84C97.6152 22.9 97.9052 24.1 97.9052 25.44C97.9052 25.64 97.8952 25.86 97.8752 26.1C97.8552 26.32 97.8152 26.58 97.7552 26.88H85.7252V24.63H96.3152L95.3252 25.5C95.3252 24.54 95.1552 23.73 94.8152 23.07C94.4752 22.39 93.9952 21.87 93.3752 21.51C92.7552 21.13 92.0052 20.94 91.1252 20.94C90.2052 20.94 89.3952 21.14 88.6952 21.54C87.9952 21.94 87.4552 22.5 87.0752 23.22C86.6952 23.94 86.5052 24.79 86.5052 25.77C86.5052 26.77 86.7052 27.65 87.1052 28.41C87.5052 29.15 88.0752 29.73 88.8152 30.15C89.5552 30.55 90.4052 30.75 91.3652 30.75C92.1652 30.75 92.8952 30.61 93.5552 30.33C94.2352 30.05 94.8152 29.63 95.2952 29.07L97.0352 30.84C96.3552 31.64 95.5152 32.25 94.5152 32.67C93.5352 33.09 92.4852 33.3 91.3652 33.3ZM100.849 33V18.75H103.549V33H100.849ZM103.549 24.87L102.529 24.42C102.529 22.6 102.949 21.15 103.789 20.07C104.629 18.99 105.839 18.45 107.419 18.45C108.139 18.45 108.789 18.58 109.369 18.84C109.949 19.08 110.489 19.49 110.989 20.07L109.219 21.9C108.919 21.58 108.589 21.35 108.229 21.21C107.869 21.07 107.449 21 106.969 21C105.969 21 105.149 21.32 104.509 21.96C103.869 22.6 103.549 23.57 103.549 24.87ZM117.098 33.3C116.298 33.3 115.538 33.2 114.818 33C114.118 32.78 113.468 32.48 112.868 32.1C112.268 31.7 111.748 31.23 111.308 30.69L113.048 28.95C113.568 29.59 114.168 30.07 114.848 30.39C115.528 30.69 116.288 30.84 117.128 30.84C117.968 30.84 118.618 30.7 119.078 30.42C119.538 30.12 119.768 29.71 119.768 29.19C119.768 28.67 119.578 28.27 119.198 27.99C118.838 27.69 118.368 27.45 117.788 27.27C117.208 27.07 116.588 26.88 115.928 26.7C115.288 26.5 114.678 26.25 114.098 25.95C113.518 25.65 113.038 25.24 112.658 24.72C112.298 24.2 112.118 23.51 112.118 22.65C112.118 21.79 112.328 21.05 112.748 20.43C113.168 19.79 113.748 19.3 114.488 18.96C115.248 18.62 116.158 18.45 117.218 18.45C118.338 18.45 119.328 18.65 120.188 19.05C121.068 19.43 121.788 20.01 122.348 20.79L120.608 22.53C120.208 22.01 119.708 21.61 119.108 21.33C118.528 21.05 117.868 20.91 117.128 20.91C116.348 20.91 115.748 21.05 115.328 21.33C114.928 21.59 114.728 21.96 114.728 22.44C114.728 22.92 114.908 23.29 115.268 23.55C115.628 23.81 116.098 24.03 116.678 24.21C117.278 24.39 117.898 24.58 118.538 24.78C119.178 24.96 119.788 25.21 120.368 25.53C120.948 25.85 121.418 26.28 121.778 26.82C122.158 27.36 122.348 28.07 122.348 28.95C122.348 30.29 121.868 31.35 120.908 32.13C119.968 32.91 118.698 33.3 117.098 33.3ZM131.881 33.3C130.481 33.3 129.221 32.97 128.101 32.31C126.981 31.65 126.091 30.76 125.431 29.64C124.771 28.5 124.441 27.23 124.441 25.83C124.441 24.45 124.771 23.21 125.431 22.11C126.091 20.99 126.981 20.1 128.101 19.44C129.221 18.78 130.481 18.45 131.881 18.45C133.261 18.45 134.511 18.78 135.631 19.44C136.771 20.08 137.671 20.96 138.331 22.08C138.991 23.2 139.321 24.45 139.321 25.83C139.321 27.23 138.991 28.5 138.331 29.64C137.671 30.76 136.771 31.65 135.631 32.31C134.511 32.97 133.261 33.3 131.881 33.3ZM131.881 30.69C132.781 30.69 133.581 30.48 134.281 30.06C134.981 29.64 135.531 29.07 135.931 28.35C136.331 27.61 136.531 26.77 136.531 25.83C136.531 24.91 136.321 24.09 135.901 23.37C135.501 22.65 134.951 22.09 134.251 21.69C133.571 21.27 132.781 21.06 131.881 21.06C130.981 21.06 130.181 21.27 129.481 21.69C128.781 22.09 128.231 22.65 127.831 23.37C127.431 24.09 127.231 24.91 127.231 25.83C127.231 26.77 127.431 27.61 127.831 28.35C128.231 29.07 128.781 29.64 129.481 30.06C130.181 30.48 130.981 30.69 131.881 30.69ZM152.443 33V24.69C152.443 23.61 152.103 22.72 151.423 22.02C150.743 21.32 149.863 20.97 148.783 20.97C148.063 20.97 147.423 21.13 146.863 21.45C146.303 21.77 145.863 22.21 145.543 22.77C145.223 23.33 145.063 23.97 145.063 24.69L143.953 24.06C143.953 22.98 144.193 22.02 144.673 21.18C145.153 20.34 145.823 19.68 146.683 19.2C147.543 18.7 148.513 18.45 149.593 18.45C150.673 18.45 151.623 18.72 152.443 19.26C153.283 19.8 153.943 20.51 154.423 21.39C154.903 22.25 155.143 23.17 155.143 24.15V33H152.443ZM142.363 33V18.75H145.063V33H142.363ZM30.46 71V50.18H32.44L33.28 53.45V71H30.46ZM44.86 71L32.08 53.93L32.44 50.18L45.25 67.22L44.86 71ZM44.86 71L44.02 67.91V50.18H46.84V71H44.86ZM57.0088 71.3C55.8488 71.3 54.7988 71.04 53.8588 70.52C52.9388 69.98 52.2188 69.24 51.6988 68.3C51.1788 67.36 50.9188 66.27 50.9188 65.03V56.75H53.6188V64.91C53.6188 65.69 53.7488 66.37 54.0088 66.95C54.2888 67.51 54.6888 67.94 55.2088 68.24C55.7288 68.54 56.3388 68.69 57.0388 68.69C58.0988 68.69 58.9288 68.36 59.5288 67.7C60.1288 67.02 60.4288 66.09 60.4288 64.91V56.75H63.1288V65.03C63.1288 66.27 62.8688 67.36 62.3488 68.3C61.8288 69.24 61.1088 69.98 60.1888 70.52C59.2888 71.04 58.2288 71.3 57.0088 71.3ZM76.8276 71V62.69C76.8276 61.61 76.4876 60.72 75.8076 60.02C75.1276 59.32 74.2476 58.97 73.1676 58.97C72.4476 58.97 71.8076 59.13 71.2476 59.45C70.6876 59.77 70.2476 60.21 69.9276 60.77C69.6076 61.33 69.4476 61.97 69.4476 62.69L68.3376 62.06C68.3376 60.98 68.5776 60.02 69.0576 59.18C69.5376 58.34 70.2076 57.68 71.0676 57.2C71.9276 56.7 72.8976 56.45 73.9776 56.45C75.0576 56.45 76.0076 56.72 76.8276 57.26C77.6676 57.8 78.3276 58.51 78.8076 59.39C79.2876 60.25 79.5276 61.17 79.5276 62.15V71H76.8276ZM66.7476 71V56.75H69.4476V71H66.7476ZM89.7831 71.3C88.3631 71.3 87.0831 70.98 85.9431 70.34C84.8031 69.68 83.9031 68.79 83.2431 67.67C82.5831 66.55 82.2531 65.28 82.2531 63.86C82.2531 62.46 82.5731 61.2 83.2131 60.08C83.8731 58.96 84.7531 58.08 85.8531 57.44C86.9731 56.78 88.2231 56.45 89.6031 56.45C90.9231 56.45 92.0831 56.75 93.0831 57.35C94.1031 57.95 94.8931 58.78 95.4531 59.84C96.0331 60.9 96.3231 62.1 96.3231 63.44C96.3231 63.64 96.3131 63.86 96.2931 64.1C96.2731 64.32 96.2331 64.58 96.1731 64.88H84.1431V62.63H94.7331L93.7431 63.5C93.7431 62.54 93.5731 61.73 93.2331 61.07C92.8931 60.39 92.4131 59.87 91.7931 59.51C91.1731 59.13 90.4231 58.94 89.5431 58.94C88.6231 58.94 87.8131 59.14 87.1131 59.54C86.4131 59.94 85.8731 60.5 85.4931 61.22C85.1131 61.94 84.9231 62.79 84.9231 63.77C84.9231 64.77 85.1231 65.65 85.5231 66.41C85.9231 67.15 86.4931 67.73 87.2331 68.15C87.9731 68.55 88.8231 68.75 89.7831 68.75C90.5831 68.75 91.3131 68.61 91.9731 68.33C92.6531 68.05 93.2331 67.63 93.7131 67.07L95.4531 68.84C94.7731 69.64 93.9331 70.25 92.9331 70.67C91.9531 71.09 90.9031 71.3 89.7831 71.3ZM103.797 71.3C102.997 71.3 102.237 71.2 101.517 71C100.817 70.78 100.167 70.48 99.5671 70.1C98.9671 69.7 98.4471 69.23 98.0071 68.69L99.7471 66.95C100.267 67.59 100.867 68.07 101.547 68.39C102.227 68.69 102.987 68.84 103.827 68.84C104.667 68.84 105.317 68.7 105.777 68.42C106.237 68.12 106.467 67.71 106.467 67.19C106.467 66.67 106.277 66.27 105.897 65.99C105.537 65.69 105.067 65.45 104.487 65.27C103.907 65.07 103.287 64.88 102.627 64.7C101.987 64.5 101.377 64.25 100.797 63.95C100.217 63.65 99.7371 63.24 99.3571 62.72C98.9971 62.2 98.8171 61.51 98.8171 60.65C98.8171 59.79 99.0271 59.05 99.4471 58.43C99.8671 57.79 100.447 57.3 101.187 56.96C101.947 56.62 102.857 56.45 103.917 56.45C105.037 56.45 106.027 56.65 106.887 57.05C107.767 57.43 108.487 58.01 109.047 58.79L107.307 60.53C106.907 60.01 106.407 59.61 105.807 59.33C105.227 59.05 104.567 58.91 103.827 58.91C103.047 58.91 102.447 59.05 102.027 59.33C101.627 59.59 101.427 59.96 101.427 60.44C101.427 60.92 101.607 61.29 101.967 61.55C102.327 61.81 102.797 62.03 103.377 62.21C103.977 62.39 104.597 62.58 105.237 62.78C105.877 62.96 106.487 63.21 107.067 63.53C107.647 63.85 108.117 64.28 108.477 64.82C108.857 65.36 109.047 66.07 109.047 66.95C109.047 68.29 108.567 69.35 107.607 70.13C106.667 70.91 105.397 71.3 103.797 71.3Z" fill="white"/>
<rect width="5" height="82" fill="#00DA3D"/>
</svg>
